<?xml version="1.0" encoding="UTF-8" standalone="no"?>
<!DOCTYPE svg PUBLIC "-//W3C//DTD SVG 1.1//EN" "http://www.w3.org/Graphics/SVG/1.1/DTD/svg11.dtd">
<!-- Generated by Microsoft Visio, SVG Export coords.svg Page-1 -->
<svg xmlns="http://www.w3.org/2000/svg" xmlns:xlink="http://www.w3.org/1999/xlink" xmlns:ev="http://www.w3.org/2001/xml-events"
		xmlns:v="http://schemas.microsoft.com/visio/2003/SVGExtensions/" width="5.53207in" height="0.681895in"
		viewBox="0 0 398.309 49.0964" xml:space="preserve" color-interpolation-filters="sRGB" class="st5">
	<v:documentProperties v:langID="1033" v:metric="true" v:viewMarkup="false"/>

	<style type="text/css">
	<![CDATA[
		.st1 {stroke:#000000;stroke-linecap:round;stroke-linejoin:round;stroke-width:2.25}
		.st2 {stroke:#000000;stroke-linecap:round;stroke-linejoin:round;stroke-width:0.75}
		.st3 {fill:none;stroke:none;stroke-linecap:round;stroke-linejoin:round;stroke-width:0.75}
		.st4 {fill:#000000;font-family:Calibri;font-size:1.00001em}
		.st5 {fill:none;fill-rule:evenodd;font-size:12px;overflow:visible;stroke-linecap:square;stroke-miterlimit:3}
	]]>
	</style>

	<g v:mID="0" v:index="1" v:groupContext="foregroundPage">
		<title>Page-1</title>
		<v:pageProperties v:drawingScale="0.0393701" v:pageScale="0.0393701" v:drawingUnits="24" v:shadowOffsetX="8.50394"
				v:shadowOffsetY="-8.50394"/>
		<g id="shape2-1" v:mID="2" v:groupContext="shape" transform="translate(18.0915,-34.5482)">
			<title>Sheet.2</title>
			<path d="M0 49.1 L77.95 49.1" class="st1"/>
		</g>
		<g id="shape51-4" v:mID="51" v:groupContext="shape" transform="translate(145.141,0.375) rotate(90)">
			<title>Sheet.51</title>
			<path d="M0 49.1 L28.35 49.1" class="st2"/>
		</g>
		<g id="shape52-7" v:mID="52" v:groupContext="shape" transform="translate(106.873,7.46161) rotate(90)">
			<title>Sheet.52</title>
			<path d="M0 49.1 L14.17 49.1" class="st2"/>
		</g>
		<g id="shape53-10" v:mID="53" v:groupContext="shape" transform="translate(67.188,0.375) rotate(90)">
			<title>Sheet.53</title>
			<path d="M0 49.1 L28.35 49.1" class="st2"/>
		</g>
		<g id="shape54-13" v:mID="54" v:groupContext="shape" transform="translate(114.469,-34.5482)">
			<title>Sheet.54</title>
			<path d="M0 49.1 L77.95 49.1" class="st1"/>
		</g>
		<g id="shape55-16" v:mID="55" v:groupContext="shape" transform="translate(241.519,0.375) rotate(90)">
			<title>Sheet.55</title>
			<path d="M0 49.1 L28.35 49.1" class="st2"/>
		</g>
		<g id="shape56-19" v:mID="56" v:groupContext="shape" transform="translate(203.251,7.46161) rotate(90)">
			<title>Sheet.56</title>
			<path d="M0 49.1 L14.17 49.1" class="st2"/>
		</g>
		<g id="shape57-22" v:mID="57" v:groupContext="shape" transform="translate(163.566,0.375) rotate(90)">
			<title>Sheet.57</title>
			<path d="M0 49.1 L28.35 49.1" class="st2"/>
		</g>
		<g id="shape64-25" v:mID="64" v:groupContext="shape" transform="translate(0.375,-0.375)">
			<title>Sheet.64</title>
			<desc>0</desc>
			<v:textBlock v:margins="rect(4,4,4,4)" v:tabSpace="42.5197"/>
			<v:textRect cx="17.7165" cy="39.0964" width="35.44" height="20"/>
			<rect x="0" y="29.0964" width="35.4331" height="20" class="st3"/>
			<text x="14.68" y="42.7" class="st4" v:langID="1033"><v:paragraph v:horizAlign="1"/><v:tabList/>0</text>		</g>
		<g id="shape65-28" v:mID="65" v:groupContext="shape" transform="translate(39.3514,-0.375)">
			<title>Sheet.65</title>
			<desc>0.75</desc>
			<v:textBlock v:margins="rect(4,4,4,4)" v:tabSpace="42.5197"/>
			<v:textRect cx="17.7165" cy="39.0964" width="35.44" height="20"/>
			<rect x="0" y="29.0964" width="35.4331" height="20" class="st3"/>
			<text x="7.08" y="42.7" class="st4" v:langID="1033"><v:paragraph v:horizAlign="1"/><v:tabList/>0.75</text>		</g>
		<g id="shape66-31" v:mID="66" v:groupContext="shape" transform="translate(82.2254,-0.532462)">
			<title>Sheet.66</title>
			<desc>1.5</desc>
			<v:textBlock v:margins="rect(4,4,4,4)" v:tabSpace="42.5197"/>
			<v:textRect cx="12.4016" cy="39.0964" width="24.81" height="20"/>
			<rect x="0" y="29.0964" width="24.8032" height="20" class="st3"/>
			<text x="4.8" y="42.7" class="st4" v:langID="1033"><v:paragraph v:horizAlign="1"/><v:tabList/>1.5</text>		</g>
		<g id="shape67-34" v:mID="67" v:groupContext="shape" transform="translate(102.068,-0.532462)">
			<title>Sheet.67</title>
			<desc>1.5</desc>
			<v:textBlock v:margins="rect(4,4,4,4)" v:tabSpace="42.5197"/>
			<v:textRect cx="12.4016" cy="39.0964" width="24.81" height="20"/>
			<rect x="0" y="29.0964" width="24.8032" height="20" class="st3"/>
			<text x="4.8" y="42.7" class="st4" v:langID="1033"><v:paragraph v:horizAlign="1"/><v:tabList/>1.5</text>		</g>
		<g id="shape68-37" v:mID="68" v:groupContext="shape" transform="translate(138.564,-0.375)">
			<title>Sheet.68</title>
			<desc>2.25</desc>
			<v:textBlock v:margins="rect(4,4,4,4)" v:tabSpace="42.5197"/>
			<v:textRect cx="17.7165" cy="39.0964" width="35.44" height="20"/>
			<rect x="0" y="29.0964" width="35.4331" height="20" class="st3"/>
			<text x="7.08" y="42.7" class="st4" v:langID="1033"><v:paragraph v:horizAlign="1"/><v:tabList/>2.25</text>		</g>
		<g id="shape69-40" v:mID="69" v:groupContext="shape" transform="translate(180.021,-0.532468)">
			<title>Sheet.69</title>
			<desc>3</desc>
			<v:textBlock v:margins="rect(4,4,4,4)" v:tabSpace="42.5197"/>
			<v:textRect cx="12.4016" cy="39.0964" width="24.81" height="20"/>
			<rect x="0" y="29.0964" width="24.8032" height="20" class="st3"/>
			<text x="9.36" y="42.7" class="st4" v:langID="1033"><v:paragraph v:horizAlign="1"/><v:tabList/>3</text>		</g>
		<g id="shape77-43" v:mID="77" v:groupContext="shape" transform="translate(211.202,-34.5482)">
			<title>Sheet.77</title>
			<path d="M0 49.1 L77.95 49.1" class="st1"/>
		</g>
		<g id="shape78-46" v:mID="78" v:groupContext="shape" transform="translate(338.251,0.375) rotate(90)">
			<title>Sheet.78</title>
			<path d="M0 49.1 L28.35 49.1" class="st2"/>
		</g>
		<g id="shape79-49" v:mID="79" v:groupContext="shape" transform="translate(299.983,7.46161) rotate(90)">
			<title>Sheet.79</title>
			<path d="M0 49.1 L14.17 49.1" class="st2"/>
		</g>
		<g id="shape80-52" v:mID="80" v:groupContext="shape" transform="translate(260.298,0.375) rotate(90)">
			<title>Sheet.80</title>
			<path d="M0 49.1 L28.35 49.1" class="st2"/>
		</g>
		<g id="shape81-55" v:mID="81" v:groupContext="shape" transform="translate(198.8,-0.532462)">
			<title>Sheet.81</title>
			<desc>3</desc>
			<v:textBlock v:margins="rect(4,4,4,4)" v:tabSpace="42.5197"/>
			<v:textRect cx="12.4016" cy="39.0964" width="24.81" height="20"/>
			<rect x="0" y="29.0964" width="24.8032" height="20" class="st3"/>
			<text x="9.36" y="42.7" class="st4" v:langID="1033"><v:paragraph v:horizAlign="1"/><v:tabList/>3</text>		</g>
		<g id="shape82-58" v:mID="82" v:groupContext="shape" transform="translate(235.296,-0.375)">
			<title>Sheet.82</title>
			<desc>4.5</desc>
			<v:textBlock v:margins="rect(4,4,4,4)" v:tabSpace="42.5197"/>
			<v:textRect cx="17.7165" cy="39.0964" width="35.44" height="20"/>
			<rect x="0" y="29.0964" width="35.4331" height="20" class="st3"/>
			<text x="10.12" y="42.7" class="st4" v:langID="1033"><v:paragraph v:horizAlign="1"/><v:tabList/>4.5</text>		</g>
		<g id="shape83-61" v:mID="83" v:groupContext="shape" transform="translate(276.753,-0.532468)">
			<title>Sheet.83</title>
			<desc>6</desc>
			<v:textBlock v:margins="rect(4,4,4,4)" v:tabSpace="42.5197"/>
			<v:textRect cx="12.4016" cy="39.0964" width="24.81" height="20"/>
			<rect x="0" y="29.0964" width="24.8032" height="20" class="st3"/>
			<text x="9.36" y="42.7" class="st4" v:langID="1033"><v:paragraph v:horizAlign="1"/><v:tabList/>6</text>		</g>
		<g id="shape84-64" v:mID="84" v:groupContext="shape" transform="translate(307.58,-34.5482)">
			<title>Sheet.84</title>
			<path d="M0 49.1 L77.95 49.1" class="st1"/>
		</g>
		<g id="shape85-67" v:mID="85" v:groupContext="shape" transform="translate(434.629,0.375) rotate(90)">
			<title>Sheet.85</title>
			<path d="M0 49.1 L28.35 49.1" class="st2"/>
		</g>
		<g id="shape86-70" v:mID="86" v:groupContext="shape" transform="translate(396.361,7.46161) rotate(90)">
			<title>Sheet.86</title>
			<path d="M0 49.1 L14.17 49.1" class="st2"/>
		</g>
		<g id="shape87-73" v:mID="87" v:groupContext="shape" transform="translate(356.676,0.375) rotate(90)">
			<title>Sheet.87</title>
			<path d="M0 49.1 L28.35 49.1" class="st2"/>
		</g>
		<g id="shape88-76" v:mID="88" v:groupContext="shape" transform="translate(295.178,-0.532462)">
			<title>Sheet.88</title>
			<desc>6</desc>
			<v:textBlock v:margins="rect(4,4,4,4)" v:tabSpace="42.5197"/>
			<v:textRect cx="12.4016" cy="39.0964" width="24.81" height="20"/>
			<rect x="0" y="29.0964" width="24.8032" height="20" class="st3"/>
			<text x="9.36" y="42.7" class="st4" v:langID="1033"><v:paragraph v:horizAlign="1"/><v:tabList/>6</text>		</g>
		<g id="shape89-79" v:mID="89" v:groupContext="shape" transform="translate(331.674,-0.375)">
			<title>Sheet.89</title>
			<desc>7</desc>
			<v:textBlock v:margins="rect(4,4,4,4)" v:tabSpace="42.5197"/>
			<v:textRect cx="17.7165" cy="39.0964" width="35.44" height="20"/>
			<rect x="0" y="29.0964" width="35.4331" height="20" class="st3"/>
			<text x="14.68" y="42.7" class="st4" v:langID="1033"><v:paragraph v:horizAlign="1"/><v:tabList/>7</text>		</g>
		<g id="shape90-82" v:mID="90" v:groupContext="shape" transform="translate(373.131,-0.532468)">
			<title>Sheet.90</title>
			<desc>8</desc>
			<v:textBlock v:margins="rect(4,4,4,4)" v:tabSpace="42.5197"/>
			<v:textRect cx="12.4016" cy="39.0964" width="24.81" height="20"/>
			<rect x="0" y="29.0964" width="24.8032" height="20" class="st3"/>
			<text x="9.36" y="42.7" class="st4" v:langID="1033"><v:paragraph v:horizAlign="1"/><v:tabList/>8</text>		</g>
	</g>
</svg>
