<?xml version="1.0" encoding="UTF-8" standalone="no"?>
<!DOCTYPE svg PUBLIC "-//W3C//DTD SVG 1.1//EN" "http://www.w3.org/Graphics/SVG/1.1/DTD/svg11.dtd">
<!-- Generated by Microsoft Visio, SVG Export Drawing2.svg Page-1 -->
<svg xmlns="http://www.w3.org/2000/svg" xmlns:xlink="http://www.w3.org/1999/xlink" xmlns:ev="http://www.w3.org/2001/xml-events"
		xmlns:v="http://schemas.microsoft.com/visio/2003/SVGExtensions/" width="8.26772in" height="11.6929in"
		viewBox="0 0 595.276 841.89" xml:space="preserve" color-interpolation-filters="sRGB" class="st11">
	<v:documentProperties v:langID="1033" v:metric="true" v:viewMarkup="false">
		<v:userDefs>
			<v:ud v:nameU="msvNoAutoConnect" v:val="VT0(1):26"/>
		</v:userDefs>
	</v:documentProperties>

	<style type="text/css">
	<![CDATA[
		.st1 {stroke:#000000;stroke-linecap:round;stroke-linejoin:round;stroke-width:2.25}
		.st2 {marker-end:url(#mrkr1-12);stroke:#000000;stroke-linecap:round;stroke-linejoin:round;stroke-width:0.75}
		.st3 {fill:#000000;fill-opacity:1;stroke:#000000;stroke-opacity:1;stroke-width:0.22935779816514}
		.st4 {fill:#000000;stroke:#000000;stroke-linecap:round;stroke-linejoin:round;stroke-width:0.75}
		.st5 {marker-end:url(#mrkr1-42);marker-start:url(#mrkr1-40);stroke:#000000;stroke-linecap:round;stroke-linejoin:round;stroke-width:1}
		.st6 {fill:#000000;fill-opacity:1;stroke:#000000;stroke-opacity:1;stroke-width:0.35714285714286}
		.st7 {fill:none;stroke:none;stroke-linecap:round;stroke-linejoin:round;stroke-width:0.75}
		.st8 {fill:#000000;font-family:Calibri;font-size:1.00001em}
		.st9 {stroke:#000000;stroke-linecap:round;stroke-linejoin:round;stroke-width:0.75}
		.st10 {stroke:#000000;stroke-dasharray:14.25,3.75,5.25,3.75;stroke-linecap:round;stroke-linejoin:round;stroke-width:0.75}
		.st11 {fill:none;fill-rule:evenodd;font-size:12px;overflow:visible;stroke-linecap:square;stroke-miterlimit:3}
	]]>
	</style>

	<defs id="Markers">
		<g id="lend1">
			<path d="M 1 -1 L 0 0 L 1 1 " style="stroke-linecap:round;stroke-linejoin:round;fill:none"/>
		</g>
		<marker id="mrkr1-12" class="st3" v:arrowType="1" v:arrowSize="2" orient="auto" markerUnits="strokeWidth"
				overflow="visible">
			<use xlink:href="#lend1" transform="scale(-4.36,-4.36) "/>
		</marker>
		<marker id="mrkr1-40" class="st6" v:arrowType="1" v:arrowSize="1" orient="auto" markerUnits="strokeWidth"
				overflow="visible">
			<use xlink:href="#lend1" transform="scale(2.8) "/>
		</marker>
		<marker id="mrkr1-42" class="st6" v:arrowType="1" v:arrowSize="1" orient="auto" markerUnits="strokeWidth"
				overflow="visible">
			<use xlink:href="#lend1" transform="scale(-2.8,-2.8) "/>
		</marker>
	</defs>
	<g v:mID="0" v:index="1" v:groupContext="foregroundPage">
		<title>Page-1</title>
		<v:pageProperties v:drawingScale="0.0393701" v:pageScale="0.0393701" v:drawingUnits="24" v:shadowOffsetX="8.50394"
				v:shadowOffsetY="-8.50394"/>
		<v:layer v:name="Electrical" v:index="0"/>
		<g id="shape83-1" v:mID="83" v:groupContext="shape" transform="translate(39.849,-637.795)">
			<title>Sheet.83</title>
			<path d="M0 841.89 L21.26 841.89" class="st1"/>
		</g>
		<g id="shape84-4" v:mID="84" v:groupContext="shape" transform="translate(75.282,-637.795)">
			<title>Sheet.84</title>
			<path d="M0 841.89 L77.95 841.89" class="st1"/>
		</g>
		<g id="shape92-7" v:mID="92" v:groupContext="shape" transform="translate(917.172,204.094) rotate(90)">
			<title>Sheet.92</title>
			<path d="M0 841.89 L35.43 841.89" class="st2"/>
		</g>
		<g id="shape94-13" v:mID="94" v:groupContext="shape" transform="translate(71.7387,-634.252)">
			<title>Sheet.94</title>
			<ellipse cx="3.54331" cy="838.346" rx="3.54331" ry="3.54331" class="st4"/>
		</g>
		<g id="shape95-15" v:mID="95" v:groupContext="shape" transform="translate(110.715,-634.252)">
			<title>Sheet.95</title>
			<ellipse cx="3.54331" cy="838.346" rx="3.54331" ry="3.54331" class="st4"/>
		</g>
		<g id="shape96-17" v:mID="96" v:groupContext="shape" transform="translate(149.691,-634.252)">
			<title>Sheet.96</title>
			<ellipse cx="3.54331" cy="838.346" rx="3.54331" ry="3.54331" class="st4"/>
		</g>
		<g id="shape97-19" v:mID="97" v:groupContext="shape" transform="translate(931.345,189.921) rotate(90)">
			<title>Sheet.97</title>
			<path d="M0 841.89 L35.43 841.89" class="st2"/>
		</g>
		<g id="shape98-24" v:mID="98" v:groupContext="shape" transform="translate(995.125,204.094) rotate(90)">
			<title>Sheet.98</title>
			<path d="M0 841.89 L35.43 841.89" class="st2"/>
		</g>
		<g id="shape99-29" v:mID="99" v:groupContext="shape" transform="translate(980.951,189.921) rotate(90)">
			<title>Sheet.99</title>
			<path d="M0 841.89 L35.43 841.89" class="st2"/>
		</g>
		<g id="shape102-34" v:mID="102" v:groupContext="shape" transform="translate(924.258,178.732) rotate(90)">
			<title>Arc - graphical</title>
			<v:userDefs>
				<v:ud v:nameU="visVersion" v:val="VT0(15):26"/>
			</v:userDefs>
			<path d="M18.65 841.89 A18.649 18.649 0 1 1 -18.65 841.89" class="st5"/>
		</g>
		<g id="shape103-43" v:mID="103" v:groupContext="shape" transform="translate(1002.21,179.851) rotate(90)">
			<title>Arc - graphical.103</title>
			<v:userDefs>
				<v:ud v:nameU="visVersion" v:val="VT0(15):26"/>
			</v:userDefs>
			<path d="M18.65 841.89 A18.649 18.649 0 1 1 -18.65 841.89" class="st5"/>
		</g>
		<g id="shape104-50" v:mID="104" v:groupContext="shape" transform="translate(49.9783,-681.575)">
			<title>Sheet.104</title>
			<desc>U11</desc>
			<v:textBlock v:margins="rect(4,4,4,4)" v:tabSpace="42.5197"/>
			<v:textRect cx="18.2172" cy="831.89" width="36.44" height="20"/>
			<rect x="0" y="821.89" width="36.4343" height="20" class="st7"/>
			<text x="8.29" y="835.49" class="st8" v:langID="1033"><v:paragraph v:horizAlign="1"/><v:tabList/>U11</text>		</g>
		<g id="shape105-53" v:mID="105" v:groupContext="shape" transform="translate(57.0649,-582.362)">
			<title>Sheet.105</title>
			<desc>U12</desc>
			<v:textBlock v:margins="rect(4,4,4,4)" v:tabSpace="42.5197"/>
			<v:textRect cx="18.2172" cy="831.89" width="36.44" height="20"/>
			<rect x="0" y="821.89" width="36.4343" height="20" class="st7"/>
			<text x="8.29" y="835.49" class="st8" v:langID="1033"><v:paragraph v:horizAlign="1"/><v:tabList/>U12</text>		</g>
		<g id="shape106-56" v:mID="106" v:groupContext="shape" transform="translate(78.3247,-599.449)">
			<title>Sheet.106</title>
			<desc>U13</desc>
			<v:textBlock v:margins="rect(4,4,4,4)" v:tabSpace="42.5197"/>
			<v:textRect cx="18.2172" cy="831.89" width="36.44" height="20"/>
			<rect x="0" y="821.89" width="36.4343" height="20" class="st7"/>
			<text x="8.29" y="835.49" class="st8" v:langID="1033"><v:paragraph v:horizAlign="1"/><v:tabList/>U13</text>		</g>
		<g id="shape107-59" v:mID="107" v:groupContext="shape" transform="translate(171.452,-582.362) scale(-1,1)">
			<title>Sheet.107</title>
			<desc>U16</desc>
			<v:textBlock v:margins="rect(4,4,4,4)" v:tabSpace="42.5197"/>
			<v:textRect cx="18.2172" cy="831.89" width="36.44" height="20"/>
			<rect x="0" y="821.89" width="36.4343" height="20" class="st7"/>
			<text x="-28.15" y="835.49" transform="scale(-1,1)" class="st8" v:langID="1033"><v:paragraph v:horizAlign="1"/><v:tabList/>U16</text>		</g>
		<g id="shape108-62" v:mID="108" v:groupContext="shape" transform="translate(155.569,-599.449) scale(-1,1)">
			<title>Sheet.108</title>
			<desc>U14</desc>
			<v:textBlock v:margins="rect(4,4,4,4)" v:tabSpace="42.5197"/>
			<v:textRect cx="18.2172" cy="831.89" width="36.44" height="20"/>
			<rect x="0" y="821.89" width="36.4343" height="20" class="st7"/>
			<text x="-28.15" y="835.49" transform="scale(-1,1)" class="st8" v:langID="1033"><v:paragraph v:horizAlign="1"/><v:tabList/>U14</text>		</g>
		<g id="shape109-65" v:mID="109" v:groupContext="shape" transform="translate(135.018,-681.654)">
			<title>Sheet.109</title>
			<desc>U15</desc>
			<v:textBlock v:margins="rect(4,4,4,4)" v:tabSpace="42.5197"/>
			<v:textRect cx="18.2172" cy="831.89" width="36.44" height="20"/>
			<rect x="0" y="821.89" width="36.4343" height="20" class="st7"/>
			<text x="8.29" y="835.49" class="st8" v:langID="1033"><v:paragraph v:horizAlign="1"/><v:tabList/>U15</text>		</g>
		<g id="shape110-68" v:mID="110" v:groupContext="shape" transform="translate(57.8399,-616.535)">
			<title>Sheet.110</title>
			<desc>1</desc>
			<v:textBlock v:margins="rect(4,4,4,4)" v:tabSpace="42.5197"/>
			<v:textRect cx="6.69913" cy="831.89" width="13.4" height="20"/>
			<rect x="0" y="821.89" width="13.3983" height="20" class="st7"/>
			<text x="4" y="835.49" class="st8" v:langID="1033"><v:paragraph v:horizAlign="1"/><v:tabList/>1</text>		</g>
		<g id="shape111-71" v:mID="111" v:groupContext="shape" transform="translate(107.559,-616.85)">
			<title>Sheet.111</title>
			<desc>2</desc>
			<v:textBlock v:margins="rect(4,4,4,4)" v:tabSpace="42.5197"/>
			<v:textRect cx="6.69913" cy="831.89" width="13.4" height="20"/>
			<rect x="0" y="821.89" width="13.3983" height="20" class="st7"/>
			<text x="4" y="835.49" class="st8" v:langID="1033"><v:paragraph v:horizAlign="1"/><v:tabList/>2</text>		</g>
		<g id="shape112-74" v:mID="112" v:groupContext="shape" transform="translate(154.01,-616.535)">
			<title>Sheet.112</title>
			<desc>3</desc>
			<v:textBlock v:margins="rect(4,4,4,4)" v:tabSpace="42.5197"/>
			<v:textRect cx="6.69913" cy="831.89" width="13.4" height="20"/>
			<rect x="0" y="821.89" width="13.3983" height="20" class="st7"/>
			<text x="4" y="835.49" class="st8" v:langID="1033"><v:paragraph v:horizAlign="1"/><v:tabList/>3</text>		</g>
		<g id="shape113-77" v:mID="113" v:groupContext="shape" transform="translate(164.677,-637.874)">
			<title>Sheet.113</title>
			<path d="M0 841.89 L21.26 841.89" class="st1"/>
		</g>
		<g id="shape114-80" v:mID="114" v:groupContext="shape" transform="translate(200.11,-637.874)">
			<title>Sheet.114</title>
			<path d="M0 841.89 L77.95 841.89" class="st1"/>
		</g>
		<g id="shape115-83" v:mID="115" v:groupContext="shape" transform="translate(1042,204.016) rotate(90)">
			<title>Sheet.115</title>
			<path d="M0 841.89 L35.43 841.89" class="st2"/>
		</g>
		<g id="shape116-88" v:mID="116" v:groupContext="shape" transform="translate(196.567,-634.331)">
			<title>Sheet.116</title>
			<ellipse cx="3.54331" cy="838.346" rx="3.54331" ry="3.54331" class="st4"/>
		</g>
		<g id="shape117-90" v:mID="117" v:groupContext="shape" transform="translate(235.544,-634.331)">
			<title>Sheet.117</title>
			<ellipse cx="3.54331" cy="838.346" rx="3.54331" ry="3.54331" class="st4"/>
		</g>
		<g id="shape118-92" v:mID="118" v:groupContext="shape" transform="translate(274.52,-634.331)">
			<title>Sheet.118</title>
			<ellipse cx="3.54331" cy="838.346" rx="3.54331" ry="3.54331" class="st4"/>
		</g>
		<g id="shape119-94" v:mID="119" v:groupContext="shape" transform="translate(1056.17,189.842) rotate(90)">
			<title>Sheet.119</title>
			<path d="M0 841.89 L35.43 841.89" class="st2"/>
		</g>
		<g id="shape120-99" v:mID="120" v:groupContext="shape" transform="translate(1119.95,204.016) rotate(90)">
			<title>Sheet.120</title>
			<path d="M0 841.89 L35.43 841.89" class="st2"/>
		</g>
		<g id="shape121-104" v:mID="121" v:groupContext="shape" transform="translate(1105.78,189.842) rotate(90)">
			<title>Sheet.121</title>
			<path d="M0 841.89 L35.43 841.89" class="st2"/>
		</g>
		<g id="shape122-109" v:mID="122" v:groupContext="shape" transform="translate(1049.09,178.653) rotate(90)">
			<title>Arc - graphical.122</title>
			<v:userDefs>
				<v:ud v:nameU="visVersion" v:val="VT0(15):26"/>
			</v:userDefs>
			<path d="M18.65 841.89 A18.649 18.649 0 1 1 -18.65 841.89" class="st5"/>
		</g>
		<g id="shape123-116" v:mID="123" v:groupContext="shape" transform="translate(1127.04,179.772) rotate(90)">
			<title>Arc - graphical.123</title>
			<v:userDefs>
				<v:ud v:nameU="visVersion" v:val="VT0(15):26"/>
			</v:userDefs>
			<path d="M18.65 841.89 A18.649 18.649 0 1 1 -18.65 841.89" class="st5"/>
		</g>
		<g id="shape124-123" v:mID="124" v:groupContext="shape" transform="translate(174.807,-681.654)">
			<title>Sheet.124</title>
			<desc>U21</desc>
			<v:textBlock v:margins="rect(4,4,4,4)" v:tabSpace="42.5197"/>
			<v:textRect cx="18.2172" cy="831.89" width="36.44" height="20"/>
			<rect x="0" y="821.89" width="36.4343" height="20" class="st7"/>
			<text x="8.29" y="835.49" class="st8" v:langID="1033"><v:paragraph v:horizAlign="1"/><v:tabList/>U21</text>		</g>
		<g id="shape125-126" v:mID="125" v:groupContext="shape" transform="translate(181.581,-582.362)">
			<title>Sheet.125</title>
			<desc>U22</desc>
			<v:textBlock v:margins="rect(4,4,4,4)" v:tabSpace="42.5197"/>
			<v:textRect cx="18.2172" cy="831.89" width="36.44" height="20"/>
			<rect x="0" y="821.89" width="36.4343" height="20" class="st7"/>
			<text x="8.29" y="835.49" class="st8" v:langID="1033"><v:paragraph v:horizAlign="1"/><v:tabList/>U22</text>		</g>
		<g id="shape126-129" v:mID="126" v:groupContext="shape" transform="translate(203.153,-599.528)">
			<title>Sheet.126</title>
			<desc>U23</desc>
			<v:textBlock v:margins="rect(4,4,4,4)" v:tabSpace="42.5197"/>
			<v:textRect cx="18.2172" cy="831.89" width="36.44" height="20"/>
			<rect x="0" y="821.89" width="36.4343" height="20" class="st7"/>
			<text x="8.29" y="835.49" class="st8" v:langID="1033"><v:paragraph v:horizAlign="1"/><v:tabList/>U23</text>		</g>
		<g id="shape127-132" v:mID="127" v:groupContext="shape" transform="translate(295.968,-582.362) scale(-1,1)">
			<title>Sheet.127</title>
			<desc>U26</desc>
			<v:textBlock v:margins="rect(4,4,4,4)" v:tabSpace="42.5197"/>
			<v:textRect cx="18.2172" cy="831.89" width="36.44" height="20"/>
			<rect x="0" y="821.89" width="36.4343" height="20" class="st7"/>
			<text x="-28.15" y="835.49" transform="scale(-1,1)" class="st8" v:langID="1033"><v:paragraph v:horizAlign="1"/><v:tabList/>U26</text>		</g>
		<g id="shape128-135" v:mID="128" v:groupContext="shape" transform="translate(280.397,-599.528) scale(-1,1)">
			<title>Sheet.128</title>
			<desc>U24</desc>
			<v:textBlock v:margins="rect(4,4,4,4)" v:tabSpace="42.5197"/>
			<v:textRect cx="18.2172" cy="831.89" width="36.44" height="20"/>
			<rect x="0" y="821.89" width="36.4343" height="20" class="st7"/>
			<text x="-28.15" y="835.49" transform="scale(-1,1)" class="st8" v:langID="1033"><v:paragraph v:horizAlign="1"/><v:tabList/>U24</text>		</g>
		<g id="shape129-138" v:mID="129" v:groupContext="shape" transform="translate(259.846,-681.732)">
			<title>Sheet.129</title>
			<desc>U25</desc>
			<v:textBlock v:margins="rect(4,4,4,4)" v:tabSpace="42.5197"/>
			<v:textRect cx="18.2172" cy="831.89" width="36.44" height="20"/>
			<rect x="0" y="821.89" width="36.4343" height="20" class="st7"/>
			<text x="8.29" y="835.49" class="st8" v:langID="1033"><v:paragraph v:horizAlign="1"/><v:tabList/>U25</text>		</g>
		<g id="shape130-141" v:mID="130" v:groupContext="shape" transform="translate(182.668,-616.614)">
			<title>Sheet.130</title>
			<desc>4</desc>
			<v:textBlock v:margins="rect(4,4,4,4)" v:tabSpace="42.5197"/>
			<v:textRect cx="6.69913" cy="831.89" width="13.4" height="20"/>
			<rect x="0" y="821.89" width="13.3983" height="20" class="st7"/>
			<text x="4" y="835.49" class="st8" v:langID="1033"><v:paragraph v:horizAlign="1"/><v:tabList/>4</text>		</g>
		<g id="shape131-144" v:mID="131" v:groupContext="shape" transform="translate(232.388,-616.929)">
			<title>Sheet.131</title>
			<desc>5</desc>
			<v:textBlock v:margins="rect(4,4,4,4)" v:tabSpace="42.5197"/>
			<v:textRect cx="6.69913" cy="831.89" width="13.4" height="20"/>
			<rect x="0" y="821.89" width="13.3983" height="20" class="st7"/>
			<text x="4" y="835.49" class="st8" v:langID="1033"><v:paragraph v:horizAlign="1"/><v:tabList/>5</text>		</g>
		<g id="shape132-147" v:mID="132" v:groupContext="shape" transform="translate(278.838,-616.614)">
			<title>Sheet.132</title>
			<desc>6</desc>
			<v:textBlock v:margins="rect(4,4,4,4)" v:tabSpace="42.5197"/>
			<v:textRect cx="6.69913" cy="831.89" width="13.4" height="20"/>
			<rect x="0" y="821.89" width="13.3983" height="20" class="st7"/>
			<text x="4" y="835.49" class="st8" v:langID="1033"><v:paragraph v:horizAlign="1"/><v:tabList/>6</text>		</g>
		<g id="shape133-150" v:mID="133" v:groupContext="shape" transform="translate(290.491,-637.638)">
			<title>Sheet.133</title>
			<path d="M0 841.89 L21.26 841.89" class="st1"/>
		</g>
		<g id="shape134-153" v:mID="134" v:groupContext="shape" transform="translate(325.924,-637.638)">
			<title>Sheet.134</title>
			<path d="M0 841.89 L77.95 841.89" class="st1"/>
		</g>
		<g id="shape135-156" v:mID="135" v:groupContext="shape" transform="translate(1167.81,204.252) rotate(90)">
			<title>Sheet.135</title>
			<path d="M0 841.89 L35.43 841.89" class="st2"/>
		</g>
		<g id="shape136-161" v:mID="136" v:groupContext="shape" transform="translate(322.381,-634.094)">
			<title>Sheet.136</title>
			<ellipse cx="3.54331" cy="838.346" rx="3.54331" ry="3.54331" class="st4"/>
		</g>
		<g id="shape137-163" v:mID="137" v:groupContext="shape" transform="translate(361.357,-634.094)">
			<title>Sheet.137</title>
			<ellipse cx="3.54331" cy="838.346" rx="3.54331" ry="3.54331" class="st4"/>
		</g>
		<g id="shape138-165" v:mID="138" v:groupContext="shape" transform="translate(400.334,-634.094)">
			<title>Sheet.138</title>
			<ellipse cx="3.54331" cy="838.346" rx="3.54331" ry="3.54331" class="st4"/>
		</g>
		<g id="shape139-167" v:mID="139" v:groupContext="shape" transform="translate(1181.99,190.079) rotate(90)">
			<title>Sheet.139</title>
			<path d="M0 841.89 L35.43 841.89" class="st2"/>
		</g>
		<g id="shape140-172" v:mID="140" v:groupContext="shape" transform="translate(1245.77,204.252) rotate(90)">
			<title>Sheet.140</title>
			<path d="M0 841.89 L35.43 841.89" class="st2"/>
		</g>
		<g id="shape141-177" v:mID="141" v:groupContext="shape" transform="translate(1231.59,190.079) rotate(90)">
			<title>Sheet.141</title>
			<path d="M0 841.89 L35.43 841.89" class="st2"/>
		</g>
		<g id="shape142-182" v:mID="142" v:groupContext="shape" transform="translate(1174.9,178.889) rotate(90)">
			<title>Arc - graphical.142</title>
			<v:userDefs>
				<v:ud v:nameU="visVersion" v:val="VT0(15):26"/>
			</v:userDefs>
			<path d="M18.65 841.89 A18.649 18.649 0 1 1 -18.65 841.89" class="st5"/>
		</g>
		<g id="shape143-189" v:mID="143" v:groupContext="shape" transform="translate(1252.85,180.008) rotate(90)">
			<title>Arc - graphical.143</title>
			<v:userDefs>
				<v:ud v:nameU="visVersion" v:val="VT0(15):26"/>
			</v:userDefs>
			<path d="M18.65 841.89 A18.649 18.649 0 1 1 -18.65 841.89" class="st5"/>
		</g>
		<g id="shape144-196" v:mID="144" v:groupContext="shape" transform="translate(300.621,-681.417)">
			<title>Sheet.144</title>
			<desc>U31</desc>
			<v:textBlock v:margins="rect(4,4,4,4)" v:tabSpace="42.5197"/>
			<v:textRect cx="18.2172" cy="831.89" width="36.44" height="20"/>
			<rect x="0" y="821.89" width="36.4343" height="20" class="st7"/>
			<text x="8.29" y="835.49" class="st8" v:langID="1033"><v:paragraph v:horizAlign="1"/><v:tabList/>U31</text>		</g>
		<g id="shape145-199" v:mID="145" v:groupContext="shape" transform="translate(307.707,-582.205)">
			<title>Sheet.145</title>
			<desc>U32</desc>
			<v:textBlock v:margins="rect(4,4,4,4)" v:tabSpace="42.5197"/>
			<v:textRect cx="18.2172" cy="831.89" width="36.44" height="20"/>
			<rect x="0" y="821.89" width="36.4343" height="20" class="st7"/>
			<text x="8.29" y="835.49" class="st8" v:langID="1033"><v:paragraph v:horizAlign="1"/><v:tabList/>U32</text>		</g>
		<g id="shape146-202" v:mID="146" v:groupContext="shape" transform="translate(328.967,-599.291)">
			<title>Sheet.146</title>
			<desc>U33</desc>
			<v:textBlock v:margins="rect(4,4,4,4)" v:tabSpace="42.5197"/>
			<v:textRect cx="18.2172" cy="831.89" width="36.44" height="20"/>
			<rect x="0" y="821.89" width="36.4343" height="20" class="st7"/>
			<text x="8.29" y="835.49" class="st8" v:langID="1033"><v:paragraph v:horizAlign="1"/><v:tabList/>U33</text>		</g>
		<g id="shape147-205" v:mID="147" v:groupContext="shape" transform="translate(422.094,-582.205) scale(-1,1)">
			<title>Sheet.147</title>
			<desc>U36</desc>
			<v:textBlock v:margins="rect(4,4,4,4)" v:tabSpace="42.5197"/>
			<v:textRect cx="18.2172" cy="831.89" width="36.44" height="20"/>
			<rect x="0" y="821.89" width="36.4343" height="20" class="st7"/>
			<text x="-28.15" y="835.49" transform="scale(-1,1)" class="st8" v:langID="1033"><v:paragraph v:horizAlign="1"/><v:tabList/>U36</text>		</g>
		<g id="shape148-208" v:mID="148" v:groupContext="shape" transform="translate(406.211,-599.291) scale(-1,1)">
			<title>Sheet.148</title>
			<desc>U34</desc>
			<v:textBlock v:margins="rect(4,4,4,4)" v:tabSpace="42.5197"/>
			<v:textRect cx="18.2172" cy="831.89" width="36.44" height="20"/>
			<rect x="0" y="821.89" width="36.4343" height="20" class="st7"/>
			<text x="-28.15" y="835.49" transform="scale(-1,1)" class="st8" v:langID="1033"><v:paragraph v:horizAlign="1"/><v:tabList/>U34</text>		</g>
		<g id="shape149-211" v:mID="149" v:groupContext="shape" transform="translate(385.66,-681.496)">
			<title>Sheet.149</title>
			<desc>U35</desc>
			<v:textBlock v:margins="rect(4,4,4,4)" v:tabSpace="42.5197"/>
			<v:textRect cx="18.2172" cy="831.89" width="36.44" height="20"/>
			<rect x="0" y="821.89" width="36.4343" height="20" class="st7"/>
			<text x="8.29" y="835.49" class="st8" v:langID="1033"><v:paragraph v:horizAlign="1"/><v:tabList/>U35</text>		</g>
		<g id="shape150-214" v:mID="150" v:groupContext="shape" transform="translate(308.482,-616.378)">
			<title>Sheet.150</title>
			<desc>7</desc>
			<v:textBlock v:margins="rect(4,4,4,4)" v:tabSpace="42.5197"/>
			<v:textRect cx="6.69913" cy="831.89" width="13.4" height="20"/>
			<rect x="0" y="821.89" width="13.3983" height="20" class="st7"/>
			<text x="4" y="835.49" class="st8" v:langID="1033"><v:paragraph v:horizAlign="1"/><v:tabList/>7</text>		</g>
		<g id="shape151-217" v:mID="151" v:groupContext="shape" transform="translate(358.202,-616.693)">
			<title>Sheet.151</title>
			<desc>8</desc>
			<v:textBlock v:margins="rect(4,4,4,4)" v:tabSpace="42.5197"/>
			<v:textRect cx="6.69913" cy="831.89" width="13.4" height="20"/>
			<rect x="0" y="821.89" width="13.3983" height="20" class="st7"/>
			<text x="4" y="835.49" class="st8" v:langID="1033"><v:paragraph v:horizAlign="1"/><v:tabList/>8</text>		</g>
		<g id="shape152-220" v:mID="152" v:groupContext="shape" transform="translate(404.652,-616.378)">
			<title>Sheet.152</title>
			<desc>9</desc>
			<v:textBlock v:margins="rect(4,4,4,4)" v:tabSpace="42.5197"/>
			<v:textRect cx="6.69913" cy="831.89" width="13.4" height="20"/>
			<rect x="0" y="821.89" width="13.3983" height="20" class="st7"/>
			<text x="4" y="835.49" class="st8" v:langID="1033"><v:paragraph v:horizAlign="1"/><v:tabList/>9</text>		</g>
		<g id="shape153-223" v:mID="153" v:groupContext="shape" transform="translate(416.901,-637.717)">
			<title>Sheet.153</title>
			<path d="M0 841.89 L21.26 841.89" class="st1"/>
		</g>
		<g id="shape154-226" v:mID="154" v:groupContext="shape" transform="translate(452.334,-637.717)">
			<title>Sheet.154</title>
			<path d="M0 841.89 L77.95 841.89" class="st1"/>
		</g>
		<g id="shape155-229" v:mID="155" v:groupContext="shape" transform="translate(1294.22,204.173) rotate(90)">
			<title>Sheet.155</title>
			<path d="M0 841.89 L35.43 841.89" class="st2"/>
		</g>
		<g id="shape156-234" v:mID="156" v:groupContext="shape" transform="translate(448.791,-634.173)">
			<title>Sheet.156</title>
			<ellipse cx="3.54331" cy="838.346" rx="3.54331" ry="3.54331" class="st4"/>
		</g>
		<g id="shape157-236" v:mID="157" v:groupContext="shape" transform="translate(487.767,-634.173)">
			<title>Sheet.157</title>
			<ellipse cx="3.54331" cy="838.346" rx="3.54331" ry="3.54331" class="st4"/>
		</g>
		<g id="shape158-238" v:mID="158" v:groupContext="shape" transform="translate(526.744,-634.173)">
			<title>Sheet.158</title>
			<ellipse cx="3.54331" cy="838.346" rx="3.54331" ry="3.54331" class="st4"/>
		</g>
		<g id="shape159-240" v:mID="159" v:groupContext="shape" transform="translate(1308.4,190) rotate(90)">
			<title>Sheet.159</title>
			<path d="M0 841.89 L35.43 841.89" class="st2"/>
		</g>
		<g id="shape160-245" v:mID="160" v:groupContext="shape" transform="translate(1372.18,204.173) rotate(90)">
			<title>Sheet.160</title>
			<path d="M0 841.89 L35.43 841.89" class="st2"/>
		</g>
		<g id="shape161-250" v:mID="161" v:groupContext="shape" transform="translate(1358,190) rotate(90)">
			<title>Sheet.161</title>
			<path d="M0 841.89 L35.43 841.89" class="st2"/>
		</g>
		<g id="shape162-255" v:mID="162" v:groupContext="shape" transform="translate(1301.31,178.811) rotate(90)">
			<title>Arc - graphical.162</title>
			<v:userDefs>
				<v:ud v:nameU="visVersion" v:val="VT0(15):26"/>
			</v:userDefs>
			<path d="M18.65 841.89 A18.649 18.649 0 1 1 -18.65 841.89" class="st5"/>
		</g>
		<g id="shape163-262" v:mID="163" v:groupContext="shape" transform="translate(1379.26,179.929) rotate(90)">
			<title>Arc - graphical.163</title>
			<v:userDefs>
				<v:ud v:nameU="visVersion" v:val="VT0(15):26"/>
			</v:userDefs>
			<path d="M18.65 841.89 A18.649 18.649 0 1 1 -18.65 841.89" class="st5"/>
		</g>
		<g id="shape164-269" v:mID="164" v:groupContext="shape" transform="translate(427.03,-681.496)">
			<title>Sheet.164</title>
			<desc>U41</desc>
			<v:textBlock v:margins="rect(4,4,4,4)" v:tabSpace="42.5197"/>
			<v:textRect cx="18.2172" cy="831.89" width="36.44" height="20"/>
			<rect x="0" y="821.89" width="36.4343" height="20" class="st7"/>
			<text x="8.29" y="835.49" class="st8" v:langID="1033"><v:paragraph v:horizAlign="1"/><v:tabList/>U41</text>		</g>
		<g id="shape165-272" v:mID="165" v:groupContext="shape" transform="translate(433.805,-582.205)">
			<title>Sheet.165</title>
			<desc>U42</desc>
			<v:textBlock v:margins="rect(4,4,4,4)" v:tabSpace="42.5197"/>
			<v:textRect cx="18.2172" cy="831.89" width="36.44" height="20"/>
			<rect x="0" y="821.89" width="36.4343" height="20" class="st7"/>
			<text x="8.29" y="835.49" class="st8" v:langID="1033"><v:paragraph v:horizAlign="1"/><v:tabList/>U42</text>		</g>
		<g id="shape166-275" v:mID="166" v:groupContext="shape" transform="translate(455.377,-599.37)">
			<title>Sheet.166</title>
			<desc>U43</desc>
			<v:textBlock v:margins="rect(4,4,4,4)" v:tabSpace="42.5197"/>
			<v:textRect cx="18.2172" cy="831.89" width="36.44" height="20"/>
			<rect x="0" y="821.89" width="36.4343" height="20" class="st7"/>
			<text x="8.29" y="835.49" class="st8" v:langID="1033"><v:paragraph v:horizAlign="1"/><v:tabList/>U43</text>		</g>
		<g id="shape167-278" v:mID="167" v:groupContext="shape" transform="translate(548.192,-582.205) scale(-1,1)">
			<title>Sheet.167</title>
			<desc>U46</desc>
			<v:textBlock v:margins="rect(4,4,4,4)" v:tabSpace="42.5197"/>
			<v:textRect cx="18.2172" cy="831.89" width="36.44" height="20"/>
			<rect x="0" y="821.89" width="36.4343" height="20" class="st7"/>
			<text x="-28.15" y="835.49" transform="scale(-1,1)" class="st8" v:langID="1033"><v:paragraph v:horizAlign="1"/><v:tabList/>U46</text>		</g>
		<g id="shape168-281" v:mID="168" v:groupContext="shape" transform="translate(532.621,-599.37) scale(-1,1)">
			<title>Sheet.168</title>
			<desc>U44</desc>
			<v:textBlock v:margins="rect(4,4,4,4)" v:tabSpace="42.5197"/>
			<v:textRect cx="18.2172" cy="831.89" width="36.44" height="20"/>
			<rect x="0" y="821.89" width="36.4343" height="20" class="st7"/>
			<text x="-28.15" y="835.49" transform="scale(-1,1)" class="st8" v:langID="1033"><v:paragraph v:horizAlign="1"/><v:tabList/>U44</text>		</g>
		<g id="shape169-284" v:mID="169" v:groupContext="shape" transform="translate(512.07,-681.575)">
			<title>Sheet.169</title>
			<desc>U45</desc>
			<v:textBlock v:margins="rect(4,4,4,4)" v:tabSpace="42.5197"/>
			<v:textRect cx="18.2172" cy="831.89" width="36.44" height="20"/>
			<rect x="0" y="821.89" width="36.4343" height="20" class="st7"/>
			<text x="8.29" y="835.49" class="st8" v:langID="1033"><v:paragraph v:horizAlign="1"/><v:tabList/>U45</text>		</g>
		<g id="shape170-287" v:mID="170" v:groupContext="shape" transform="translate(428.013,-616.457)">
			<title>Sheet.170</title>
			<desc>10</desc>
			<v:textBlock v:margins="rect(4,4,4,4)" v:tabSpace="42.5197"/>
			<v:textRect cx="10.1384" cy="831.89" width="20.28" height="20"/>
			<rect x="0" y="821.89" width="20.2768" height="20" class="st7"/>
			<text x="4.06" y="835.49" class="st8" v:langID="1033"><v:paragraph v:horizAlign="1"/><v:tabList/>10</text>		</g>
		<g id="shape171-290" v:mID="171" v:groupContext="shape" transform="translate(484.611,-616.772)">
			<title>Sheet.171</title>
			<desc>11</desc>
			<v:textBlock v:margins="rect(4,4,4,4)" v:tabSpace="42.5197"/>
			<v:textRect cx="10.1384" cy="831.89" width="20.28" height="20"/>
			<rect x="0" y="821.89" width="20.2768" height="20" class="st7"/>
			<text x="4.06" y="835.49" class="st8" v:langID="1033"><v:paragraph v:horizAlign="1"/><v:tabList/>11</text>		</g>
		<g id="shape172-293" v:mID="172" v:groupContext="shape" transform="translate(531.062,-616.457)">
			<title>Sheet.172</title>
			<desc>12</desc>
			<v:textBlock v:margins="rect(4,4,4,4)" v:tabSpace="42.5197"/>
			<v:textRect cx="10.1384" cy="831.89" width="20.28" height="20"/>
			<rect x="0" y="821.89" width="20.2768" height="20" class="st7"/>
			<text x="4.06" y="835.49" class="st8" v:langID="1033"><v:paragraph v:horizAlign="1"/><v:tabList/>12</text>		</g>
		<g id="shape173-296" v:mID="173" v:groupContext="shape" transform="translate(545.669,-637.795)">
			<title>Sheet.173</title>
			<path d="M0 841.89 L21.26 841.89" class="st1"/>
		</g>
		<g id="group186-299" transform="translate(557.717,-620.787)" v:mID="186" v:groupContext="group">
			<title>Sheet.186</title>
			<g id="shape174-300" v:mID="174" v:groupContext="shape" transform="translate(1.41833,-5.10238) rotate(6.73593E-05)">
				<title>Sheet.174</title>
				<path d="M0 841.89 L17.01 841.89" class="st9"/>
			</g>
			<g id="shape175-303" v:mID="175" v:groupContext="shape" transform="translate(683.433,320.315) rotate(53.1301)">
				<title>Sheet.175</title>
				<path d="M0 841.89 L14.17 841.89" class="st9"/>
			</g>
			<g id="shape176-306" v:mID="176" v:groupContext="shape" transform="translate(-672.094,331.653) rotate(-53.1301)">
				<title>Sheet.176</title>
				<path d="M0 841.89 L14.17 841.89" class="st9"/>
			</g>
			<g id="shape177-309" v:mID="177" v:groupContext="shape" transform="translate(580.202,1462.56) rotate(138.013)">
				<title>Sheet.177</title>
				<path d="M0 841.89 L7.63 841.89" class="st9"/>
			</g>
			<g id="shape178-312" v:mID="178" v:groupContext="shape" transform="translate(574.533,1462.56) rotate(138.013)">
				<title>Sheet.178</title>
				<path d="M0 841.89 L7.63 841.89" class="st9"/>
			</g>
			<g id="shape179-315" v:mID="179" v:groupContext="shape" transform="translate(568.864,1462.56) rotate(138.013)">
				<title>Sheet.179</title>
				<path d="M0 841.89 L7.63 841.89" class="st9"/>
			</g>
		</g>
		<g id="shape187-318" v:mID="187" v:groupContext="shape" transform="translate(891.78,125.843) rotate(90)">
			<title>Sheet.187</title>
			<path d="M0 841.89 L168.96 841.89" class="st10"/>
		</g>
	</g>
</svg>
