<?xml version="1.0" encoding="UTF-8" standalone="no"?>
<!DOCTYPE svg PUBLIC "-//W3C//DTD SVG 1.1//EN" "http://www.w3.org/Graphics/SVG/1.1/DTD/svg11.dtd">
<!-- Generated by Microsoft Visio, SVG Export globDispl.svg globDispl -->
<svg xmlns="http://www.w3.org/2000/svg" xmlns:xlink="http://www.w3.org/1999/xlink" xmlns:ev="http://www.w3.org/2001/xml-events"
		xmlns:v="http://schemas.microsoft.com/visio/2003/SVGExtensions/" width="8.26772in" height="11.6929in"
		viewBox="0 0 595.276 841.889" xml:space="preserve" color-interpolation-filters="sRGB" class="st13">
	<v:documentProperties v:langID="1033">
		<v:userDefs>
			<v:ud v:nameU="msvNoAutoConnect" v:val="VT0(1):26"/>
		</v:userDefs>
	</v:documentProperties>

	<style type="text/css">
	<![CDATA[
		.st1 {fill:none;stroke:none;stroke-width:1}
		.st2 {fill:none}
		.st3 {stroke:#000000;stroke-linecap:round;stroke-linejoin:round;stroke-width:2.25}
		.st4 {marker-end:url(#mrkr1-18);stroke:#000000;stroke-linecap:round;stroke-linejoin:round;stroke-width:0.749999}
		.st5 {fill:#000000;fill-opacity:1;stroke:#000000;stroke-opacity:1;stroke-width:0.22935751498657}
		.st6 {marker-end:url(#mrkr1-39);stroke:#000000;stroke-linecap:round;stroke-linejoin:round;stroke-width:0.999999}
		.st7 {fill:#000000;fill-opacity:1;stroke:#000000;stroke-opacity:1;stroke-width:0.35714256584059}
		.st8 {fill:none;stroke:none;stroke-linecap:round;stroke-linejoin:round;stroke-width:0.749999}
		.st9 {fill:#000000;font-family:Calibri;font-size:1.00001em}
		.st10 {stroke:#000000;stroke-dasharray:14.25,3.74999,5.24999,3.74999;stroke-linecap:round;stroke-linejoin:round;stroke-width:0.749999}
		.st11 {stroke:#000000;stroke-linecap:round;stroke-linejoin:round;stroke-width:0.749999}
		.st12 {stroke:#000000;stroke-linecap:round;stroke-linejoin:round;stroke-width:0.75}
		.st13 {fill:none;fill-rule:evenodd;font-size:12px;overflow:visible;stroke-linecap:square;stroke-miterlimit:3}
	]]>
	</style>

	<defs id="Markers">
		<g id="lend1">
			<path d="M 1 -1 L 0 0 L 1 1 " style="stroke-linecap:round;stroke-linejoin:round;fill:none"/>
		</g>
		<marker id="mrkr1-18" class="st5" v:arrowType="1" v:arrowSize="2" orient="auto" markerUnits="strokeWidth"
				overflow="visible">
			<use xlink:href="#lend1" transform="scale(-4.3600053831179,-4.3600053831179) "/>
		</marker>
		<marker id="mrkr1-39" class="st7" v:arrowType="1" v:arrowSize="1" orient="auto" markerUnits="strokeWidth"
				overflow="visible">
			<use xlink:href="#lend1" transform="scale(-2.8000022838116,-2.8000022838116) "/>
		</marker>
	</defs>
	<g v:mID="0" v:index="1" v:groupContext="foregroundPage">
		<title>globDispl</title>
		<v:pageProperties v:drawingScale="0.0393701" v:pageScale="0.0393701" v:drawingUnits="24" v:shadowOffsetX="8.50393"
				v:shadowOffsetY="-8.50393"/>
		<v:layer v:name="Electrical" v:index="0"/>
		<g id="group1-1" transform="translate(39.8493,-637.793)" v:mID="1" v:groupContext="group">
			<title>Sheet.1</title>
			<g id="shape2-2" v:mID="2" v:groupContext="shape">
				<title>Sheet.2</title>
				<path d="M0 841.89 L21.26 841.89 L0 841.89 Z" class="st1"/>
			</g>
			<g id="shape3-4" v:mID="3" v:groupContext="shape">
				<title>Sheet.3</title>
				<path d="M0 841.89 L21.26 841.89 L0 841.89 Z" class="st2"/>
				<path d="M0 841.89 L21.26 841.89" class="st3"/>
			</g>
		</g>
		<g id="group4-7" transform="translate(75.2822,-637.793)" v:mID="4" v:groupContext="group">
			<title>Sheet.4</title>
			<g id="shape5-8" v:mID="5" v:groupContext="shape">
				<title>Sheet.5</title>
				<path d="M0 841.89 L77.95 841.89 L0 841.89 Z" class="st1"/>
			</g>
			<g id="shape6-10" v:mID="6" v:groupContext="shape">
				<title>Sheet.6</title>
				<path d="M0 841.89 L77.95 841.89 L0 841.89 Z" class="st2"/>
				<path d="M0 841.89 L77.95 841.89" class="st3"/>
			</g>
		</g>
		<g id="shape7-13" v:mID="7" v:groupContext="shape" transform="translate(891.494,204.094) rotate(90)">
			<title>Sheet.7</title>
			<path d="M0 841.89 L35.43 841.89" class="st4"/>
		</g>
		<g id="shape8-19" v:mID="8" v:groupContext="shape" transform="translate(909.711,189.921) rotate(90)">
			<title>Sheet.8</title>
			<path d="M0 841.89 L35.43 841.89" class="st4"/>
		</g>
		<g id="shape9-24" v:mID="9" v:groupContext="shape" transform="translate(1018.85,204.094) rotate(90)">
			<title>Sheet.9</title>
			<path d="M0 841.89 L35.43 841.89" class="st4"/>
		</g>
		<g id="shape10-29" v:mID="10" v:groupContext="shape" transform="translate(1002.32,189.921) rotate(90)">
			<title>Sheet.10</title>
			<path d="M0 841.89 L35.43 841.89" class="st4"/>
		</g>
		<g id="shape11-34" v:mID="11" v:groupContext="shape" transform="translate(1001.99,161.201) rotate(90)">
			<title>Arc - graphical.103</title>
			<v:userDefs>
				<v:ud v:nameU="visVersion" v:val="VT0(15):26"/>
			</v:userDefs>
			<path d="M37.3 823.24 A18.65 18.65 0 0 1 0 823.24" class="st6"/>
		</g>
		<g id="shape12-40" v:mID="12" v:groupContext="shape" transform="translate(41.5187,-582.361)">
			<title>Sheet.12</title>
			<desc>U1</desc>
			<v:userDefs/>
			<v:textBlock v:margins="rect(3.99999,3.99999,3.99999,3.99999)" v:tabSpace="42.5196"/>
			<v:textRect cx="18.2168" cy="831.889" width="36.44" height="20"/>
			<rect x="0" y="821.889" width="36.4342" height="20" class="st8"/>
			<text x="11.33" y="835.49" class="st9" v:langID="1033"><v:paragraph v:horizAlign="1"/><v:tabList/>U1</text>		</g>
		<g id="shape13-43" v:mID="13" v:groupContext="shape" transform="translate(56.6932,-599.448)">
			<title>Sheet.13</title>
			<desc>U2</desc>
			<v:userDefs/>
			<v:textBlock v:margins="rect(3.99999,3.99999,3.99999,3.99999)" v:tabSpace="42.5196"/>
			<v:textRect cx="18.2168" cy="831.889" width="36.44" height="20"/>
			<rect x="0" y="821.889" width="36.4342" height="20" class="st8"/>
			<text x="11.33" y="835.49" class="st9" v:langID="1033"><v:paragraph v:horizAlign="1"/><v:tabList/>U2</text>		</g>
		<g id="shape14-46" v:mID="14" v:groupContext="shape" transform="translate(195.174,-582.361) scale(-1,1)">
			<title>Sheet.14</title>
			<desc>U5</desc>
			<v:userDefs/>
			<v:textBlock v:margins="rect(3.99999,3.99999,3.99999,3.99999)" v:tabSpace="42.5196"/>
			<v:textRect cx="18.2168" cy="831.889" width="36.44" height="20"/>
			<rect x="0" y="821.889" width="36.4342" height="20" class="st8"/>
			<text x="-25.11" y="835.49" transform="scale(-1,1)" class="st9" v:langID="1033"><v:paragraph v:horizAlign="1"/><v:tabList/>U5</text>		</g>
		<g id="shape15-49" v:mID="15" v:groupContext="shape" transform="translate(176.935,-599.448) scale(-1,1)">
			<title>Sheet.15</title>
			<desc>U3</desc>
			<v:userDefs/>
			<v:textBlock v:margins="rect(3.99999,3.99999,3.99999,3.99999)" v:tabSpace="42.5196"/>
			<v:textRect cx="18.2168" cy="831.889" width="36.44" height="20"/>
			<rect x="0" y="821.889" width="36.4342" height="20" class="st8"/>
			<text x="-25.11" y="835.49" transform="scale(-1,1)" class="st9" v:langID="1033"><v:paragraph v:horizAlign="1"/><v:tabList/>U3</text>		</g>
		<g id="shape16-52" v:mID="16" v:groupContext="shape" transform="translate(153.443,-681.653)">
			<title>Sheet.16</title>
			<desc>U4</desc>
			<v:userDefs/>
			<v:textBlock v:margins="rect(3.99999,3.99999,3.99999,3.99999)" v:tabSpace="42.5196"/>
			<v:textRect cx="18.2168" cy="831.889" width="36.44" height="20"/>
			<rect x="0" y="821.889" width="36.4342" height="20" class="st8"/>
			<text x="11.33" y="835.49" class="st9" v:langID="1033"><v:paragraph v:horizAlign="1"/><v:tabList/>U4</text>		</g>
		<g id="group17-55" transform="translate(164.677,-637.872)" v:mID="17" v:groupContext="group">
			<title>Sheet.17</title>
			<g id="shape18-56" v:mID="18" v:groupContext="shape">
				<title>Sheet.18</title>
				<path d="M0 841.89 L21.26 841.89 L0 841.89 Z" class="st1"/>
			</g>
			<g id="shape19-58" v:mID="19" v:groupContext="shape">
				<title>Sheet.19</title>
				<path d="M0 841.89 L21.26 841.89 L0 841.89 Z" class="st2"/>
				<path d="M0 841.89 L21.26 841.89" class="st3"/>
			</g>
		</g>
		<g id="group20-61" transform="translate(200.11,-637.872)" v:mID="20" v:groupContext="group">
			<title>Sheet.20</title>
			<g id="shape21-62" v:mID="21" v:groupContext="shape">
				<title>Sheet.21</title>
				<path d="M0 841.89 L77.95 841.89 L0 841.89 Z" class="st1"/>
			</g>
			<g id="shape22-64" v:mID="22" v:groupContext="shape">
				<title>Sheet.22</title>
				<path d="M0 841.89 L77.95 841.89 L0 841.89 Z" class="st2"/>
				<path d="M0 841.89 L77.95 841.89" class="st3"/>
			</g>
		</g>
		<g id="shape23-67" v:mID="23" v:groupContext="shape" transform="translate(1034.54,189.842) rotate(90)">
			<title>Sheet.23</title>
			<path d="M0 841.89 L35.43 841.89" class="st4"/>
		</g>
		<g id="shape24-72" v:mID="24" v:groupContext="shape" transform="translate(1143.68,204.016) rotate(90)">
			<title>Sheet.24</title>
			<path d="M0 841.89 L35.43 841.89" class="st4"/>
		</g>
		<g id="shape25-77" v:mID="25" v:groupContext="shape" transform="translate(1127.15,189.842) rotate(90)">
			<title>Sheet.25</title>
			<path d="M0 841.89 L35.43 841.89" class="st4"/>
		</g>
		<g id="shape26-82" v:mID="26" v:groupContext="shape" transform="translate(1126.81,161.122) rotate(90)">
			<title>Arc - graphical.123</title>
			<v:userDefs>
				<v:ud v:nameU="visVersion" v:val="VT0(15):26"/>
			</v:userDefs>
			<path d="M37.3 823.24 A18.65 18.65 0 0 1 0 823.24" class="st6"/>
		</g>
		<g id="shape27-87" v:mID="27" v:groupContext="shape" transform="translate(181.521,-599.527)">
			<title>Sheet.27</title>
			<desc>U6</desc>
			<v:userDefs/>
			<v:textBlock v:margins="rect(3.99999,3.99999,3.99999,3.99999)" v:tabSpace="42.5196"/>
			<v:textRect cx="18.2168" cy="831.889" width="36.44" height="20"/>
			<rect x="0" y="821.889" width="36.4342" height="20" class="st8"/>
			<text x="11.33" y="835.49" class="st9" v:langID="1033"><v:paragraph v:horizAlign="1"/><v:tabList/>U6</text>		</g>
		<g id="shape28-90" v:mID="28" v:groupContext="shape" transform="translate(319.691,-582.361) scale(-1,1)">
			<title>Sheet.28</title>
			<desc>U9</desc>
			<v:userDefs/>
			<v:textBlock v:margins="rect(3.99999,3.99999,3.99999,3.99999)" v:tabSpace="42.5196"/>
			<v:textRect cx="18.2168" cy="831.889" width="36.44" height="20"/>
			<rect x="0" y="821.889" width="36.4342" height="20" class="st8"/>
			<text x="-25.11" y="835.49" transform="scale(-1,1)" class="st9" v:langID="1033"><v:paragraph v:horizAlign="1"/><v:tabList/>U9</text>		</g>
		<g id="shape29-93" v:mID="29" v:groupContext="shape" transform="translate(301.764,-599.527) scale(-1,1)">
			<title>Sheet.29</title>
			<desc>U7</desc>
			<v:userDefs/>
			<v:textBlock v:margins="rect(3.99999,3.99999,3.99999,3.99999)" v:tabSpace="42.5196"/>
			<v:textRect cx="18.2168" cy="831.889" width="36.44" height="20"/>
			<rect x="0" y="821.889" width="36.4342" height="20" class="st8"/>
			<text x="-25.11" y="835.49" transform="scale(-1,1)" class="st9" v:langID="1033"><v:paragraph v:horizAlign="1"/><v:tabList/>U7</text>		</g>
		<g id="shape30-96" v:mID="30" v:groupContext="shape" transform="translate(278.271,-681.731)">
			<title>Sheet.30</title>
			<desc>U8</desc>
			<v:userDefs/>
			<v:textBlock v:margins="rect(3.99999,3.99999,3.99999,3.99999)" v:tabSpace="42.5196"/>
			<v:textRect cx="18.2168" cy="831.889" width="36.44" height="20"/>
			<rect x="0" y="821.889" width="36.4342" height="20" class="st8"/>
			<text x="11.33" y="835.49" class="st9" v:langID="1033"><v:paragraph v:horizAlign="1"/><v:tabList/>U8</text>		</g>
		<g id="group31-99" transform="translate(290.491,-637.636)" v:mID="31" v:groupContext="group">
			<title>Sheet.31</title>
			<g id="shape32-100" v:mID="32" v:groupContext="shape">
				<title>Sheet.32</title>
				<path d="M0 841.89 L21.26 841.89 L0 841.89 Z" class="st1"/>
			</g>
			<g id="shape33-102" v:mID="33" v:groupContext="shape">
				<title>Sheet.33</title>
				<path d="M0 841.89 L21.26 841.89 L0 841.89 Z" class="st2"/>
				<path d="M0 841.89 L21.26 841.89" class="st3"/>
			</g>
		</g>
		<g id="group34-105" transform="translate(325.924,-637.636)" v:mID="34" v:groupContext="group">
			<title>Sheet.34</title>
			<g id="shape35-106" v:mID="35" v:groupContext="shape">
				<title>Sheet.35</title>
				<path d="M0 841.89 L77.95 841.89 L0 841.89 Z" class="st1"/>
			</g>
			<g id="shape36-108" v:mID="36" v:groupContext="shape">
				<title>Sheet.36</title>
				<path d="M0 841.89 L77.95 841.89 L0 841.89 Z" class="st2"/>
				<path d="M0 841.89 L77.95 841.89" class="st3"/>
			</g>
		</g>
		<g id="shape37-111" v:mID="37" v:groupContext="shape" transform="translate(1160.36,190.079) rotate(90)">
			<title>Sheet.37</title>
			<path d="M0 841.89 L35.43 841.89" class="st4"/>
		</g>
		<g id="shape38-116" v:mID="38" v:groupContext="shape" transform="translate(1269.49,204.252) rotate(90)">
			<title>Sheet.38</title>
			<path d="M0 841.89 L35.43 841.89" class="st4"/>
		</g>
		<g id="shape39-121" v:mID="39" v:groupContext="shape" transform="translate(1252.96,190.079) rotate(90)">
			<title>Sheet.39</title>
			<path d="M0 841.89 L35.43 841.89" class="st4"/>
		</g>
		<g id="shape40-126" v:mID="40" v:groupContext="shape" transform="translate(1252.63,161.358) rotate(90)">
			<title>Arc - graphical.143</title>
			<v:userDefs>
				<v:ud v:nameU="visVersion" v:val="VT0(15):26"/>
			</v:userDefs>
			<path d="M37.3 823.24 A18.65 18.65 0 0 1 0 823.24" class="st6"/>
		</g>
		<g id="shape41-131" v:mID="41" v:groupContext="shape" transform="translate(307.335,-599.29)">
			<title>Sheet.41</title>
			<desc>U10</desc>
			<v:userDefs/>
			<v:textBlock v:margins="rect(3.99999,3.99999,3.99999,3.99999)" v:tabSpace="42.5196"/>
			<v:textRect cx="18.2168" cy="831.889" width="36.44" height="20"/>
			<rect x="0" y="821.889" width="36.4342" height="20" class="st8"/>
			<text x="8.29" y="835.49" class="st9" v:langID="1033"><v:paragraph v:horizAlign="1"/><v:tabList/>U10</text>		</g>
		<g id="shape42-134" v:mID="42" v:groupContext="shape" transform="translate(445.817,-582.204) scale(-1,1)">
			<title>Sheet.42</title>
			<desc>U13</desc>
			<v:userDefs/>
			<v:textBlock v:margins="rect(3.99999,3.99999,3.99999,3.99999)" v:tabSpace="42.5196"/>
			<v:textRect cx="18.2168" cy="831.889" width="36.44" height="20"/>
			<rect x="0" y="821.889" width="36.4342" height="20" class="st8"/>
			<text x="-28.15" y="835.49" transform="scale(-1,1)" class="st9" v:langID="1033"><v:paragraph v:horizAlign="1"/><v:tabList/>U13</text>		</g>
		<g id="shape43-137" v:mID="43" v:groupContext="shape" transform="translate(427.578,-599.29) scale(-1,1)">
			<title>Sheet.43</title>
			<desc>U11</desc>
			<v:userDefs/>
			<v:textBlock v:margins="rect(3.99999,3.99999,3.99999,3.99999)" v:tabSpace="42.5196"/>
			<v:textRect cx="18.2168" cy="831.889" width="36.44" height="20"/>
			<rect x="0" y="821.889" width="36.4342" height="20" class="st8"/>
			<text x="-28.15" y="835.49" transform="scale(-1,1)" class="st9" v:langID="1033"><v:paragraph v:horizAlign="1"/><v:tabList/>U11</text>		</g>
		<g id="shape44-140" v:mID="44" v:groupContext="shape" transform="translate(404.085,-681.495)">
			<title>Sheet.44</title>
			<desc>U12</desc>
			<v:userDefs/>
			<v:textBlock v:margins="rect(3.99999,3.99999,3.99999,3.99999)" v:tabSpace="42.5196"/>
			<v:textRect cx="18.2168" cy="831.889" width="36.44" height="20"/>
			<rect x="0" y="821.889" width="36.4342" height="20" class="st8"/>
			<text x="8.29" y="835.49" class="st9" v:langID="1033"><v:paragraph v:horizAlign="1"/><v:tabList/>U12</text>		</g>
		<g id="group45-143" transform="translate(416.901,-637.715)" v:mID="45" v:groupContext="group">
			<title>Sheet.45</title>
			<g id="shape46-144" v:mID="46" v:groupContext="shape">
				<title>Sheet.46</title>
				<path d="M0 841.89 L21.26 841.89 L0 841.89 Z" class="st1"/>
			</g>
			<g id="shape47-146" v:mID="47" v:groupContext="shape">
				<title>Sheet.47</title>
				<path d="M0 841.89 L21.26 841.89 L0 841.89 Z" class="st2"/>
				<path d="M0 841.89 L21.26 841.89" class="st3"/>
			</g>
		</g>
		<g id="group48-149" transform="translate(452.334,-637.715)" v:mID="48" v:groupContext="group">
			<title>Sheet.48</title>
			<g id="shape49-150" v:mID="49" v:groupContext="shape">
				<title>Sheet.49</title>
				<path d="M0 841.89 L77.95 841.89 L0 841.89 Z" class="st1"/>
			</g>
			<g id="shape50-152" v:mID="50" v:groupContext="shape">
				<title>Sheet.50</title>
				<path d="M0 841.89 L77.95 841.89 L0 841.89 Z" class="st2"/>
				<path d="M0 841.89 L77.95 841.89" class="st3"/>
			</g>
		</g>
		<g id="shape51-155" v:mID="51" v:groupContext="shape" transform="translate(1286.77,190) rotate(90)">
			<title>Sheet.51</title>
			<path d="M0 841.89 L35.43 841.89" class="st4"/>
		</g>
		<g id="shape52-160" v:mID="52" v:groupContext="shape" transform="translate(1379.37,190) rotate(90)">
			<title>Sheet.52</title>
			<path d="M0 841.89 L35.43 841.89" class="st4"/>
		</g>
		<g id="shape53-165" v:mID="53" v:groupContext="shape" transform="translate(1379.04,161.279) rotate(90)">
			<title>Arc - graphical.163</title>
			<v:userDefs>
				<v:ud v:nameU="visVersion" v:val="VT0(15):26"/>
			</v:userDefs>
			<path d="M37.3 823.24 A18.65 18.65 0 0 1 0 823.24" class="st6"/>
		</g>
		<g id="shape54-170" v:mID="54" v:groupContext="shape" transform="translate(433.745,-599.369)">
			<title>Sheet.54</title>
			<desc>U14</desc>
			<v:userDefs/>
			<v:textBlock v:margins="rect(3.99999,3.99999,3.99999,3.99999)" v:tabSpace="42.5196"/>
			<v:textRect cx="18.2168" cy="831.889" width="36.44" height="20"/>
			<rect x="0" y="821.889" width="36.4342" height="20" class="st8"/>
			<text x="8.29" y="835.49" class="st9" v:langID="1033"><v:paragraph v:horizAlign="1"/><v:tabList/>U14</text>		</g>
		<g id="shape55-173" v:mID="55" v:groupContext="shape" transform="translate(553.987,-599.369) scale(-1,1)">
			<title>Sheet.55</title>
			<desc>U15</desc>
			<v:userDefs/>
			<v:textBlock v:margins="rect(3.99999,3.99999,3.99999,3.99999)" v:tabSpace="42.5196"/>
			<v:textRect cx="18.2168" cy="831.889" width="36.44" height="20"/>
			<rect x="0" y="821.889" width="36.4342" height="20" class="st8"/>
			<text x="-28.15" y="835.49" transform="scale(-1,1)" class="st9" v:langID="1033"><v:paragraph v:horizAlign="1"/><v:tabList/>U15</text>		</g>
		<g id="shape56-176" v:mID="56" v:groupContext="shape" transform="translate(530.495,-681.574)">
			<title>Sheet.56</title>
			<desc>U16</desc>
			<v:userDefs/>
			<v:textBlock v:margins="rect(3.99999,3.99999,3.99999,3.99999)" v:tabSpace="42.5196"/>
			<v:textRect cx="18.2168" cy="831.889" width="36.44" height="20"/>
			<rect x="0" y="821.889" width="36.4342" height="20" class="st8"/>
			<text x="8.29" y="835.49" class="st9" v:langID="1033"><v:paragraph v:horizAlign="1"/><v:tabList/>U16</text>		</g>
		<g id="group57-179" transform="translate(545.669,-637.793)" v:mID="57" v:groupContext="group">
			<title>Sheet.57</title>
			<g id="shape58-180" v:mID="58" v:groupContext="shape">
				<title>Sheet.58</title>
				<path d="M0 841.89 L21.26 841.89 L0 841.89 Z" class="st1"/>
			</g>
			<g id="shape59-182" v:mID="59" v:groupContext="shape">
				<title>Sheet.59</title>
				<path d="M0 841.89 L21.26 841.89 L0 841.89 Z" class="st2"/>
				<path d="M0 841.89 L21.26 841.89" class="st3"/>
			</g>
		</g>
		<g id="group79-185" transform="translate(891.778,144.045) rotate(90)" v:mID="79" v:groupContext="group">
			<title>Sheet.79</title>
			<g id="shape80-186" v:mID="80" v:groupContext="shape">
				<title>Sheet.80</title>
				<path d="M0 841.89 L109.66 841.89 L0 841.89 Z" class="st1"/>
			</g>
			<g id="shape81-188" v:mID="81" v:groupContext="shape">
				<title>Sheet.81</title>
				<path d="M0 841.89 L109.66 841.89 L0 841.89 Z" class="st2"/>
				<path d="M0 841.89 L109.66 841.89" class="st10"/>
			</g>
		</g>
		<g id="group82-191" transform="translate(557.006,-620.787)" v:mID="82" v:groupContext="group">
			<title>Sheet.82</title>
			<g id="shape83-192" v:mID="83" v:groupContext="shape" transform="translate(1.41808,-5.10256) rotate(6.73593E-05)">
				<title>Sheet.83</title>
				<path d="M0 841.89 L17.01 841.89 L0 841.89 Z" class="st2"/>
				<path d="M0 841.89 L17.01 841.89" class="st11"/>
			</g>
			<g id="shape84-195" v:mID="84" v:groupContext="shape" transform="translate(580.201,1462.56) rotate(138.013)">
				<title>Sheet.84</title>
				<path d="M0 841.89 L7.63 841.89 L0 841.89 Z" class="st2"/>
				<path d="M0 841.89 L7.63 841.89" class="st11"/>
			</g>
			<g id="shape85-198" v:mID="85" v:groupContext="shape" transform="translate(574.532,1462.56) rotate(138.013)">
				<title>Sheet.85</title>
				<path d="M0 841.89 L7.63 841.89 L0 841.89 Z" class="st2"/>
				<path d="M0 841.89 L7.63 841.89" class="st11"/>
			</g>
			<g id="shape86-201" v:mID="86" v:groupContext="shape" transform="translate(568.863,1462.56) rotate(138.013)">
				<title>Sheet.86</title>
				<path d="M0 841.89 L7.63 841.89 L0 841.89 Z" class="st2"/>
				<path d="M0 841.89 L7.63 841.89" class="st11"/>
			</g>
			<g id="shape87-204" v:mID="87" v:groupContext="shape" transform="translate(-823.462,836.786) rotate(-90)">
				<title>Sheet.87</title>
				<path d="M0 841.89 L11.91 841.89" class="st12"/>
			</g>
			<g id="shape88-207" v:mID="88" v:groupContext="shape" transform="translate(18.4271,1666.77) rotate(180)">
				<title>Sheet.88</title>
				<path d="M0 841.89 L17.15 841.89" class="st12"/>
			</g>
			<g id="shape89-210" v:mID="89" v:groupContext="shape" transform="translate(-840.613,836.786) rotate(-90)">
				<title>Sheet.89</title>
				<path d="M0 841.89 L11.91 841.89" class="st12"/>
			</g>
		</g>
	</g>
</svg>
