<?xml version="1.0" encoding="UTF-8" standalone="no"?>
<!DOCTYPE svg PUBLIC "-//W3C//DTD SVG 1.1//EN" "http://www.w3.org/Graphics/SVG/1.1/DTD/svg11.dtd">
<!-- Generated by Microsoft Visio, SVG Export globDispl.svg globDispl -->
<svg xmlns="http://www.w3.org/2000/svg" xmlns:xlink="http://www.w3.org/1999/xlink" xmlns:ev="http://www.w3.org/2001/xml-events"
		xmlns:v="http://schemas.microsoft.com/visio/2003/SVGExtensions/" width="8.26772in" height="11.6929in"
		viewBox="0 0 595.276 841.889" xml:space="preserve" color-interpolation-filters="sRGB" class="st11">
	<v:documentProperties v:langID="1033">
		<v:userDefs>
			<v:ud v:nameU="msvNoAutoConnect" v:val="VT0(1):26"/>
		</v:userDefs>
	</v:documentProperties>

	<style type="text/css">
	<![CDATA[
		.st1 {fill:none}
		.st2 {stroke:#000000;stroke-linecap:round;stroke-linejoin:round;stroke-width:2.25}
		.st3 {marker-end:url(#mrkr1-12);stroke:#000000;stroke-linecap:round;stroke-linejoin:round;stroke-width:0.749999}
		.st4 {fill:#000000;fill-opacity:1;stroke:#000000;stroke-opacity:1;stroke-width:0.22935754622792}
		.st5 {marker-end:url(#mrkr1-33);stroke:#000000;stroke-linecap:round;stroke-linejoin:round;stroke-width:0.999999}
		.st6 {fill:#000000;fill-opacity:1;stroke:#000000;stroke-opacity:1;stroke-width:0.35714252989067}
		.st7 {fill:none;stroke:none;stroke-linecap:round;stroke-linejoin:round;stroke-width:0.749999}
		.st8 {fill:#000000;font-family:Calibri;font-size:1.00001em}
		.st9 {stroke:#000000;stroke-linecap:round;stroke-linejoin:round;stroke-width:0.749999}
		.st10 {stroke:#000000;stroke-dasharray:14.25,3.74999,5.24999,3.74999;stroke-linecap:round;stroke-linejoin:round;stroke-width:0.749999}
		.st11 {fill:none;fill-rule:evenodd;font-size:12px;overflow:visible;stroke-linecap:square;stroke-miterlimit:3}
	]]>
	</style>

	<defs id="Markers">
		<g id="lend1">
			<path d="M 1 -1 L 0 0 L 1 1 " style="stroke-linecap:round;stroke-linejoin:round;fill:none"/>
		</g>
		<marker id="mrkr1-12" class="st4" v:arrowType="1" v:arrowSize="2" orient="auto" markerUnits="strokeWidth"
				overflow="visible">
			<use xlink:href="#lend1" transform="scale(-4.3600047892311,-4.3600047892311) "/>
		</marker>
		<marker id="mrkr1-33" class="st6" v:arrowType="1" v:arrowSize="1" orient="auto" markerUnits="strokeWidth"
				overflow="visible">
			<use xlink:href="#lend1" transform="scale(-2.8000025656595,-2.8000025656595) "/>
		</marker>
	</defs>
	<g v:mID="0" v:index="1" v:groupContext="foregroundPage">
		<title>globDispl</title>
		<v:pageProperties v:drawingScale="0.0393701" v:pageScale="0.0393701" v:drawingUnits="24" v:shadowOffsetX="8.50393"
				v:shadowOffsetY="-8.50393"/>
		<v:layer v:name="Electrical" v:index="0"/>
		<g id="shape1-1" v:mID="1" v:groupContext="shape" transform="translate(39.8493,-637.794)">
			<title>Sheet.1</title>
			<path d="M0 841.89 L21.26 841.89 L0 841.89 Z" class="st1"/>
			<path d="M0 841.89 L21.26 841.89" class="st2"/>
		</g>
		<g id="shape2-4" v:mID="2" v:groupContext="shape" transform="translate(75.2822,-637.794)">
			<title>Sheet.2</title>
			<path d="M0 841.89 L77.95 841.89 L0 841.89 Z" class="st1"/>
			<path d="M0 841.89 L77.95 841.89" class="st2"/>
		</g>
		<g id="shape3-7" v:mID="3" v:groupContext="shape" transform="translate(891.495,204.094) rotate(90)">
			<title>Sheet.3</title>
			<path d="M0 841.89 L35.43 841.89" class="st3"/>
		</g>
		<g id="shape4-13" v:mID="4" v:groupContext="shape" transform="translate(909.712,189.921) rotate(90)">
			<title>Sheet.4</title>
			<path d="M0 841.89 L35.43 841.89" class="st3"/>
		</g>
		<g id="shape5-18" v:mID="5" v:groupContext="shape" transform="translate(1018.85,204.094) rotate(90)">
			<title>Sheet.5</title>
			<path d="M0 841.89 L35.43 841.89" class="st3"/>
		</g>
		<g id="shape6-23" v:mID="6" v:groupContext="shape" transform="translate(1002.32,189.921) rotate(90)">
			<title>Sheet.6</title>
			<path d="M0 841.89 L35.43 841.89" class="st3"/>
		</g>
		<g id="shape7-28" v:mID="7" v:groupContext="shape" transform="translate(1001.99,161.201) rotate(90)">
			<title>Arc - graphical.103</title>
			<v:userDefs>
				<v:ud v:nameU="visVersion" v:val="VT0(15):26"/>
			</v:userDefs>
			<path d="M37.3 823.24 A18.65 18.65 0 1 1 0 823.24" class="st5"/>
		</g>
		<g id="shape8-34" v:mID="8" v:groupContext="shape" transform="translate(41.5187,-582.361)">
			<title>Sheet.8</title>
			<desc>U1</desc>
			<v:userDefs/>
			<v:textBlock v:margins="rect(3.99999,3.99999,3.99999,3.99999)" v:tabSpace="42.5196"/>
			<v:textRect cx="18.2168" cy="831.889" width="36.44" height="20"/>
			<rect x="0" y="821.889" width="36.4342" height="20" class="st7"/>
			<text x="11.33" y="835.49" class="st8" v:langID="1033"><v:paragraph v:horizAlign="1"/><v:tabList/>U1</text>		</g>
		<g id="shape9-37" v:mID="9" v:groupContext="shape" transform="translate(56.6932,-599.448)">
			<title>Sheet.9</title>
			<desc>U2</desc>
			<v:userDefs/>
			<v:textBlock v:margins="rect(3.99999,3.99999,3.99999,3.99999)" v:tabSpace="42.5196"/>
			<v:textRect cx="18.2168" cy="831.889" width="36.44" height="20"/>
			<rect x="0" y="821.889" width="36.4342" height="20" class="st7"/>
			<text x="11.33" y="835.49" class="st8" v:langID="1033"><v:paragraph v:horizAlign="1"/><v:tabList/>U2</text>		</g>
		<g id="shape10-40" v:mID="10" v:groupContext="shape" transform="translate(195.174,-582.361) scale(-1,1)">
			<title>Sheet.10</title>
			<desc>U5</desc>
			<v:userDefs/>
			<v:textBlock v:margins="rect(3.99999,3.99999,3.99999,3.99999)" v:tabSpace="42.5196"/>
			<v:textRect cx="18.2168" cy="831.889" width="36.44" height="20"/>
			<rect x="0" y="821.889" width="36.4342" height="20" class="st7"/>
			<text x="-25.11" y="835.49" transform="scale(-1,1)" class="st8" v:langID="1033"><v:paragraph v:horizAlign="1"/><v:tabList/>U5</text>		</g>
		<g id="shape11-43" v:mID="11" v:groupContext="shape" transform="translate(176.935,-599.448) scale(-1,1)">
			<title>Sheet.11</title>
			<desc>U3</desc>
			<v:userDefs/>
			<v:textBlock v:margins="rect(3.99999,3.99999,3.99999,3.99999)" v:tabSpace="42.5196"/>
			<v:textRect cx="18.2168" cy="831.889" width="36.44" height="20"/>
			<rect x="0" y="821.889" width="36.4342" height="20" class="st7"/>
			<text x="-25.11" y="835.49" transform="scale(-1,1)" class="st8" v:langID="1033"><v:paragraph v:horizAlign="1"/><v:tabList/>U3</text>		</g>
		<g id="shape12-46" v:mID="12" v:groupContext="shape" transform="translate(153.443,-681.653)">
			<title>Sheet.12</title>
			<desc>U4</desc>
			<v:userDefs/>
			<v:textBlock v:margins="rect(3.99999,3.99999,3.99999,3.99999)" v:tabSpace="42.5196"/>
			<v:textRect cx="18.2168" cy="831.889" width="36.44" height="20"/>
			<rect x="0" y="821.889" width="36.4342" height="20" class="st7"/>
			<text x="11.33" y="835.49" class="st8" v:langID="1033"><v:paragraph v:horizAlign="1"/><v:tabList/>U4</text>		</g>
		<g id="shape13-49" v:mID="13" v:groupContext="shape" transform="translate(164.677,-637.873)">
			<title>Sheet.13</title>
			<path d="M0 841.89 L21.26 841.89 L0 841.89 Z" class="st1"/>
			<path d="M0 841.89 L21.26 841.89" class="st2"/>
		</g>
		<g id="shape14-52" v:mID="14" v:groupContext="shape" transform="translate(200.11,-637.873)">
			<title>Sheet.14</title>
			<path d="M0 841.89 L77.95 841.89 L0 841.89 Z" class="st1"/>
			<path d="M0 841.89 L77.95 841.89" class="st2"/>
		</g>
		<g id="shape15-55" v:mID="15" v:groupContext="shape" transform="translate(1034.54,189.842) rotate(90)">
			<title>Sheet.15</title>
			<path d="M0 841.89 L35.43 841.89" class="st3"/>
		</g>
		<g id="shape16-60" v:mID="16" v:groupContext="shape" transform="translate(1143.68,204.016) rotate(90)">
			<title>Sheet.16</title>
			<path d="M0 841.89 L35.43 841.89" class="st3"/>
		</g>
		<g id="shape17-65" v:mID="17" v:groupContext="shape" transform="translate(1127.15,189.842) rotate(90)">
			<title>Sheet.17</title>
			<path d="M0 841.89 L35.43 841.89" class="st3"/>
		</g>
		<g id="shape18-70" v:mID="18" v:groupContext="shape" transform="translate(1126.81,161.122) rotate(90)">
			<title>Arc - graphical.123</title>
			<v:userDefs>
				<v:ud v:nameU="visVersion" v:val="VT0(15):26"/>
			</v:userDefs>
			<path d="M37.3 823.24 A18.65 18.65 0 1 1 0 823.24" class="st5"/>
		</g>
		<g id="shape19-75" v:mID="19" v:groupContext="shape" transform="translate(181.521,-599.527)">
			<title>Sheet.19</title>
			<desc>U6</desc>
			<v:userDefs/>
			<v:textBlock v:margins="rect(3.99999,3.99999,3.99999,3.99999)" v:tabSpace="42.5196"/>
			<v:textRect cx="18.2168" cy="831.889" width="36.44" height="20"/>
			<rect x="0" y="821.889" width="36.4342" height="20" class="st7"/>
			<text x="11.33" y="835.49" class="st8" v:langID="1033"><v:paragraph v:horizAlign="1"/><v:tabList/>U6</text>		</g>
		<g id="shape20-78" v:mID="20" v:groupContext="shape" transform="translate(319.691,-582.361) scale(-1,1)">
			<title>Sheet.20</title>
			<desc>U9</desc>
			<v:userDefs/>
			<v:textBlock v:margins="rect(3.99999,3.99999,3.99999,3.99999)" v:tabSpace="42.5196"/>
			<v:textRect cx="18.2168" cy="831.889" width="36.44" height="20"/>
			<rect x="0" y="821.889" width="36.4342" height="20" class="st7"/>
			<text x="-25.11" y="835.49" transform="scale(-1,1)" class="st8" v:langID="1033"><v:paragraph v:horizAlign="1"/><v:tabList/>U9</text>		</g>
		<g id="shape21-81" v:mID="21" v:groupContext="shape" transform="translate(301.764,-599.527) scale(-1,1)">
			<title>Sheet.21</title>
			<desc>U7</desc>
			<v:userDefs/>
			<v:textBlock v:margins="rect(3.99999,3.99999,3.99999,3.99999)" v:tabSpace="42.5196"/>
			<v:textRect cx="18.2168" cy="831.889" width="36.44" height="20"/>
			<rect x="0" y="821.889" width="36.4342" height="20" class="st7"/>
			<text x="-25.11" y="835.49" transform="scale(-1,1)" class="st8" v:langID="1033"><v:paragraph v:horizAlign="1"/><v:tabList/>U7</text>		</g>
		<g id="shape22-84" v:mID="22" v:groupContext="shape" transform="translate(278.271,-681.731)">
			<title>Sheet.22</title>
			<desc>U8</desc>
			<v:userDefs/>
			<v:textBlock v:margins="rect(3.99999,3.99999,3.99999,3.99999)" v:tabSpace="42.5196"/>
			<v:textRect cx="18.2168" cy="831.889" width="36.44" height="20"/>
			<rect x="0" y="821.889" width="36.4342" height="20" class="st7"/>
			<text x="11.33" y="835.49" class="st8" v:langID="1033"><v:paragraph v:horizAlign="1"/><v:tabList/>U8</text>		</g>
		<g id="shape23-87" v:mID="23" v:groupContext="shape" transform="translate(290.491,-637.637)">
			<title>Sheet.23</title>
			<path d="M0 841.89 L21.26 841.89 L0 841.89 Z" class="st1"/>
			<path d="M0 841.89 L21.26 841.89" class="st2"/>
		</g>
		<g id="shape24-90" v:mID="24" v:groupContext="shape" transform="translate(325.924,-637.637)">
			<title>Sheet.24</title>
			<path d="M0 841.89 L77.95 841.89 L0 841.89 Z" class="st1"/>
			<path d="M0 841.89 L77.95 841.89" class="st2"/>
		</g>
		<g id="shape25-93" v:mID="25" v:groupContext="shape" transform="translate(1160.36,190.079) rotate(90)">
			<title>Sheet.25</title>
			<path d="M0 841.89 L35.43 841.89" class="st3"/>
		</g>
		<g id="shape26-98" v:mID="26" v:groupContext="shape" transform="translate(1269.49,204.252) rotate(90)">
			<title>Sheet.26</title>
			<path d="M0 841.89 L35.43 841.89" class="st3"/>
		</g>
		<g id="shape27-103" v:mID="27" v:groupContext="shape" transform="translate(1252.96,190.079) rotate(90)">
			<title>Sheet.27</title>
			<path d="M0 841.89 L35.43 841.89" class="st3"/>
		</g>
		<g id="shape28-108" v:mID="28" v:groupContext="shape" transform="translate(1252.63,161.358) rotate(90)">
			<title>Arc - graphical.143</title>
			<v:userDefs>
				<v:ud v:nameU="visVersion" v:val="VT0(15):26"/>
			</v:userDefs>
			<path d="M37.3 823.24 A18.65 18.65 0 1 1 0 823.24" class="st5"/>
		</g>
		<g id="shape29-113" v:mID="29" v:groupContext="shape" transform="translate(307.335,-599.29)">
			<title>Sheet.29</title>
			<desc>U10</desc>
			<v:userDefs/>
			<v:textBlock v:margins="rect(3.99999,3.99999,3.99999,3.99999)" v:tabSpace="42.5196"/>
			<v:textRect cx="18.2168" cy="831.889" width="36.44" height="20"/>
			<rect x="0" y="821.889" width="36.4342" height="20" class="st7"/>
			<text x="8.29" y="835.49" class="st8" v:langID="1033"><v:paragraph v:horizAlign="1"/><v:tabList/>U10</text>		</g>
		<g id="shape30-116" v:mID="30" v:groupContext="shape" transform="translate(445.817,-582.204) scale(-1,1)">
			<title>Sheet.30</title>
			<desc>U13</desc>
			<v:userDefs/>
			<v:textBlock v:margins="rect(3.99999,3.99999,3.99999,3.99999)" v:tabSpace="42.5196"/>
			<v:textRect cx="18.2168" cy="831.889" width="36.44" height="20"/>
			<rect x="0" y="821.889" width="36.4342" height="20" class="st7"/>
			<text x="-28.15" y="835.49" transform="scale(-1,1)" class="st8" v:langID="1033"><v:paragraph v:horizAlign="1"/><v:tabList/>U13</text>		</g>
		<g id="shape31-119" v:mID="31" v:groupContext="shape" transform="translate(427.578,-599.29) scale(-1,1)">
			<title>Sheet.31</title>
			<desc>U11</desc>
			<v:userDefs/>
			<v:textBlock v:margins="rect(3.99999,3.99999,3.99999,3.99999)" v:tabSpace="42.5196"/>
			<v:textRect cx="18.2168" cy="831.889" width="36.44" height="20"/>
			<rect x="0" y="821.889" width="36.4342" height="20" class="st7"/>
			<text x="-28.15" y="835.49" transform="scale(-1,1)" class="st8" v:langID="1033"><v:paragraph v:horizAlign="1"/><v:tabList/>U11</text>		</g>
		<g id="shape32-122" v:mID="32" v:groupContext="shape" transform="translate(404.085,-681.495)">
			<title>Sheet.32</title>
			<desc>U12</desc>
			<v:userDefs/>
			<v:textBlock v:margins="rect(3.99999,3.99999,3.99999,3.99999)" v:tabSpace="42.5196"/>
			<v:textRect cx="18.2168" cy="831.889" width="36.44" height="20"/>
			<rect x="0" y="821.889" width="36.4342" height="20" class="st7"/>
			<text x="8.29" y="835.49" class="st8" v:langID="1033"><v:paragraph v:horizAlign="1"/><v:tabList/>U12</text>		</g>
		<g id="shape33-125" v:mID="33" v:groupContext="shape" transform="translate(416.901,-637.716)">
			<title>Sheet.33</title>
			<path d="M0 841.89 L21.26 841.89 L0 841.89 Z" class="st1"/>
			<path d="M0 841.89 L21.26 841.89" class="st2"/>
		</g>
		<g id="shape34-128" v:mID="34" v:groupContext="shape" transform="translate(452.334,-637.716)">
			<title>Sheet.34</title>
			<path d="M0 841.89 L77.95 841.89 L0 841.89 Z" class="st1"/>
			<path d="M0 841.89 L77.95 841.89" class="st2"/>
		</g>
		<g id="shape35-131" v:mID="35" v:groupContext="shape" transform="translate(1286.77,190) rotate(90)">
			<title>Sheet.35</title>
			<path d="M0 841.89 L35.43 841.89" class="st3"/>
		</g>
		<g id="shape36-136" v:mID="36" v:groupContext="shape" transform="translate(1379.37,190) rotate(90)">
			<title>Sheet.36</title>
			<path d="M0 841.89 L35.43 841.89" class="st3"/>
		</g>
		<g id="shape37-141" v:mID="37" v:groupContext="shape" transform="translate(1379.04,161.279) rotate(90)">
			<title>Arc - graphical.163</title>
			<v:userDefs>
				<v:ud v:nameU="visVersion" v:val="VT0(15):26"/>
			</v:userDefs>
			<path d="M37.3 823.24 A18.65 18.65 0 1 1 0 823.24" class="st5"/>
		</g>
		<g id="shape38-146" v:mID="38" v:groupContext="shape" transform="translate(433.745,-599.369)">
			<title>Sheet.38</title>
			<desc>U14</desc>
			<v:userDefs/>
			<v:textBlock v:margins="rect(3.99999,3.99999,3.99999,3.99999)" v:tabSpace="42.5196"/>
			<v:textRect cx="18.2168" cy="831.889" width="36.44" height="20"/>
			<rect x="0" y="821.889" width="36.4342" height="20" class="st7"/>
			<text x="8.29" y="835.49" class="st8" v:langID="1033"><v:paragraph v:horizAlign="1"/><v:tabList/>U14</text>		</g>
		<g id="shape39-149" v:mID="39" v:groupContext="shape" transform="translate(553.987,-599.369) scale(-1,1)">
			<title>Sheet.39</title>
			<desc>U15</desc>
			<v:userDefs/>
			<v:textBlock v:margins="rect(3.99999,3.99999,3.99999,3.99999)" v:tabSpace="42.5196"/>
			<v:textRect cx="18.2168" cy="831.889" width="36.44" height="20"/>
			<rect x="0" y="821.889" width="36.4342" height="20" class="st7"/>
			<text x="-28.15" y="835.49" transform="scale(-1,1)" class="st8" v:langID="1033"><v:paragraph v:horizAlign="1"/><v:tabList/>U15</text>		</g>
		<g id="shape40-152" v:mID="40" v:groupContext="shape" transform="translate(530.495,-681.574)">
			<title>Sheet.40</title>
			<desc>U16</desc>
			<v:userDefs/>
			<v:textBlock v:margins="rect(3.99999,3.99999,3.99999,3.99999)" v:tabSpace="42.5196"/>
			<v:textRect cx="18.2168" cy="831.889" width="36.44" height="20"/>
			<rect x="0" y="821.889" width="36.4342" height="20" class="st7"/>
			<text x="8.29" y="835.49" class="st8" v:langID="1033"><v:paragraph v:horizAlign="1"/><v:tabList/>U16</text>		</g>
		<g id="shape41-155" v:mID="41" v:groupContext="shape" transform="translate(545.669,-637.794)">
			<title>Sheet.41</title>
			<path d="M0 841.89 L21.26 841.89 L0 841.89 Z" class="st1"/>
			<path d="M0 841.89 L21.26 841.89" class="st2"/>
		</g>
		<g id="group42-158" transform="translate(557.717,-620.786)" v:mID="42" v:groupContext="group">
			<title>Sheet.42</title>
			<g id="shape43-159" v:mID="43" v:groupContext="shape" transform="translate(1.41808,-5.10256) rotate(6.73593E-05)">
				<title>Sheet.43</title>
				<path d="M0 841.89 L17.01 841.89 L0 841.89 Z" class="st1"/>
				<path d="M0 841.89 L17.01 841.89" class="st9"/>
			</g>
			<g id="shape44-162" v:mID="44" v:groupContext="shape" transform="translate(683.432,320.314) rotate(53.1301)">
				<title>Sheet.44</title>
				<path d="M0 841.89 L14.17 841.89 L0 841.89 Z" class="st1"/>
				<path d="M0 841.89 L14.17 841.89" class="st9"/>
			</g>
			<g id="shape45-165" v:mID="45" v:groupContext="shape" transform="translate(-672.093,331.652) rotate(-53.1301)">
				<title>Sheet.45</title>
				<path d="M0 841.89 L14.17 841.89 L0 841.89 Z" class="st1"/>
				<path d="M0 841.89 L14.17 841.89" class="st9"/>
			</g>
			<g id="shape46-168" v:mID="46" v:groupContext="shape" transform="translate(580.201,1462.56) rotate(138.013)">
				<title>Sheet.46</title>
				<path d="M0 841.89 L7.63 841.89 L0 841.89 Z" class="st1"/>
				<path d="M0 841.89 L7.63 841.89" class="st9"/>
			</g>
			<g id="shape47-171" v:mID="47" v:groupContext="shape" transform="translate(574.532,1462.56) rotate(138.013)">
				<title>Sheet.47</title>
				<path d="M0 841.89 L7.63 841.89 L0 841.89 Z" class="st1"/>
				<path d="M0 841.89 L7.63 841.89" class="st9"/>
			</g>
			<g id="shape48-174" v:mID="48" v:groupContext="shape" transform="translate(568.863,1462.56) rotate(138.013)">
				<title>Sheet.48</title>
				<path d="M0 841.89 L7.63 841.89 L0 841.89 Z" class="st1"/>
				<path d="M0 841.89 L7.63 841.89" class="st9"/>
			</g>
		</g>
		<g id="shape49-177" v:mID="49" v:groupContext="shape" transform="translate(891.779,144.045) rotate(90)">
			<title>Sheet.49</title>
			<path d="M0 841.89 L109.66 841.89 L0 841.89 Z" class="st1"/>
			<path d="M0 841.89 L109.66 841.89" class="st10"/>
		</g>
	</g>
</svg>
