<?xml version="1.0" encoding="UTF-8" standalone="no"?>
<!DOCTYPE svg PUBLIC "-//W3C//DTD SVG 1.1//EN" "http://www.w3.org/Graphics/SVG/1.1/DTD/svg11.dtd">
<!-- Generated by Microsoft Visio, SVG Export globDispl.svg globDispl -->
<svg xmlns="http://www.w3.org/2000/svg" xmlns:xlink="http://www.w3.org/1999/xlink" xmlns:ev="http://www.w3.org/2001/xml-events"
		xmlns:v="http://schemas.microsoft.com/visio/2003/SVGExtensions/" width="8.26772in" height="11.6929in"
		viewBox="0 0 595.276 841.89" xml:space="preserve" color-interpolation-filters="sRGB" class="st10">
	<v:documentProperties v:langID="1033" v:metric="true" v:viewMarkup="false">
		<v:userDefs>
			<v:ud v:nameU="msvNoAutoConnect" v:val="VT0(1):26"/>
		</v:userDefs>
	</v:documentProperties>

	<style type="text/css">
	<![CDATA[
		.st1 {stroke:#000000;stroke-linecap:round;stroke-linejoin:round;stroke-width:2.25}
		.st2 {marker-end:url(#mrkr1-12);stroke:#000000;stroke-linecap:round;stroke-linejoin:round;stroke-width:0.75}
		.st3 {fill:#000000;fill-opacity:1;stroke:#000000;stroke-opacity:1;stroke-width:0.22935779816514}
		.st4 {marker-end:url(#mrkr1-36);marker-start:url(#mrkr1-34);stroke:#000000;stroke-linecap:round;stroke-linejoin:round;stroke-width:1}
		.st5 {fill:#000000;fill-opacity:1;stroke:#000000;stroke-opacity:1;stroke-width:0.35714285714286}
		.st6 {fill:none;stroke:none;stroke-linecap:round;stroke-linejoin:round;stroke-width:0.75}
		.st7 {fill:#000000;font-family:Calibri;font-size:1.00001em}
		.st8 {stroke:#000000;stroke-linecap:round;stroke-linejoin:round;stroke-width:0.75}
		.st9 {stroke:#000000;stroke-dasharray:14.25,3.75,5.25,3.75;stroke-linecap:round;stroke-linejoin:round;stroke-width:0.75}
		.st10 {fill:none;fill-rule:evenodd;font-size:12px;overflow:visible;stroke-linecap:square;stroke-miterlimit:3}
	]]>
	</style>

	<defs id="Markers">
		<g id="lend1">
			<path d="M 1 -1 L 0 0 L 1 1 " style="stroke-linecap:round;stroke-linejoin:round;fill:none"/>
		</g>
		<marker id="mrkr1-12" class="st3" v:arrowType="1" v:arrowSize="2" orient="auto" markerUnits="strokeWidth"
				overflow="visible">
			<use xlink:href="#lend1" transform="scale(-4.36,-4.36) "/>
		</marker>
		<marker id="mrkr1-34" class="st5" v:arrowType="1" v:arrowSize="1" orient="auto" markerUnits="strokeWidth"
				overflow="visible">
			<use xlink:href="#lend1" transform="scale(2.8) "/>
		</marker>
		<marker id="mrkr1-36" class="st5" v:arrowType="1" v:arrowSize="1" orient="auto" markerUnits="strokeWidth"
				overflow="visible">
			<use xlink:href="#lend1" transform="scale(-2.8,-2.8) "/>
		</marker>
	</defs>
	<g v:mID="5" v:index="2" v:groupContext="foregroundPage">
		<title>globDispl</title>
		<v:pageProperties v:drawingScale="0.0393701" v:pageScale="0.0393701" v:drawingUnits="24" v:shadowOffsetX="8.50394"
				v:shadowOffsetY="-8.50394"/>
		<v:layer v:name="Electrical" v:index="0"/>
		<g id="shape83-1" v:mID="83" v:groupContext="shape" transform="translate(39.849,-637.795)">
			<title>Sheet.83</title>
			<path d="M0 841.89 L21.26 841.89" class="st1"/>
		</g>
		<g id="shape84-4" v:mID="84" v:groupContext="shape" transform="translate(75.282,-637.795)">
			<title>Sheet.84</title>
			<path d="M0 841.89 L77.95 841.89" class="st1"/>
		</g>
		<g id="shape92-7" v:mID="92" v:groupContext="shape" transform="translate(891.496,204.094) rotate(90)">
			<title>Sheet.92</title>
			<path d="M0 841.89 L35.43 841.89" class="st2"/>
		</g>
		<g id="shape97-13" v:mID="97" v:groupContext="shape" transform="translate(909.713,189.921) rotate(90)">
			<title>Sheet.97</title>
			<path d="M0 841.89 L35.43 841.89" class="st2"/>
		</g>
		<g id="shape98-18" v:mID="98" v:groupContext="shape" transform="translate(1018.85,204.094) rotate(90)">
			<title>Sheet.98</title>
			<path d="M0 841.89 L35.43 841.89" class="st2"/>
		</g>
		<g id="shape99-23" v:mID="99" v:groupContext="shape" transform="translate(1002.32,189.921) rotate(90)">
			<title>Sheet.99</title>
			<path d="M0 841.89 L35.43 841.89" class="st2"/>
		</g>
		<g id="shape103-28" v:mID="103" v:groupContext="shape" transform="translate(1020.64,179.851) rotate(90)">
			<title>Arc - graphical.103</title>
			<v:userDefs>
				<v:ud v:nameU="visVersion" v:val="VT0(15):26"/>
			</v:userDefs>
			<path d="M18.65 841.89 A18.649 18.649 0 1 1 -18.65 841.89" class="st4"/>
		</g>
		<g id="shape105-37" v:mID="105" v:groupContext="shape" transform="translate(41.5184,-582.362)">
			<title>Sheet.105</title>
			<desc>U1</desc>
			<v:textBlock v:margins="rect(4,4,4,4)" v:tabSpace="42.5197"/>
			<v:textRect cx="18.2172" cy="831.89" width="36.44" height="20"/>
			<rect x="0" y="821.89" width="36.4343" height="20" class="st6"/>
			<text x="11.33" y="835.49" class="st7" v:langID="1033"><v:paragraph v:horizAlign="1"/><v:tabList/>U1</text>		</g>
		<g id="shape106-40" v:mID="106" v:groupContext="shape" transform="translate(56.6929,-599.449)">
			<title>Sheet.106</title>
			<desc>U2</desc>
			<v:textBlock v:margins="rect(4,4,4,4)" v:tabSpace="42.5197"/>
			<v:textRect cx="18.2172" cy="831.89" width="36.44" height="20"/>
			<rect x="0" y="821.89" width="36.4343" height="20" class="st6"/>
			<text x="11.33" y="835.49" class="st7" v:langID="1033"><v:paragraph v:horizAlign="1"/><v:tabList/>U2</text>		</g>
		<g id="shape107-43" v:mID="107" v:groupContext="shape" transform="translate(195.174,-582.362) scale(-1,1)">
			<title>Sheet.107</title>
			<desc>U5</desc>
			<v:textBlock v:margins="rect(4,4,4,4)" v:tabSpace="42.5197"/>
			<v:textRect cx="18.2172" cy="831.89" width="36.44" height="20"/>
			<rect x="0" y="821.89" width="36.4343" height="20" class="st6"/>
			<text x="-25.11" y="835.49" transform="scale(-1,1)" class="st7" v:langID="1033"><v:paragraph v:horizAlign="1"/><v:tabList/>U5</text>		</g>
		<g id="shape108-46" v:mID="108" v:groupContext="shape" transform="translate(176.935,-599.449) scale(-1,1)">
			<title>Sheet.108</title>
			<desc>U3</desc>
			<v:textBlock v:margins="rect(4,4,4,4)" v:tabSpace="42.5197"/>
			<v:textRect cx="18.2172" cy="831.89" width="36.44" height="20"/>
			<rect x="0" y="821.89" width="36.4343" height="20" class="st6"/>
			<text x="-25.11" y="835.49" transform="scale(-1,1)" class="st7" v:langID="1033"><v:paragraph v:horizAlign="1"/><v:tabList/>U3</text>		</g>
		<g id="shape109-49" v:mID="109" v:groupContext="shape" transform="translate(153.443,-681.654)">
			<title>Sheet.109</title>
			<desc>U4</desc>
			<v:textBlock v:margins="rect(4,4,4,4)" v:tabSpace="42.5197"/>
			<v:textRect cx="18.2172" cy="831.89" width="36.44" height="20"/>
			<rect x="0" y="821.89" width="36.4343" height="20" class="st6"/>
			<text x="11.33" y="835.49" class="st7" v:langID="1033"><v:paragraph v:horizAlign="1"/><v:tabList/>U4</text>		</g>
		<g id="shape113-52" v:mID="113" v:groupContext="shape" transform="translate(164.677,-637.874)">
			<title>Sheet.113</title>
			<path d="M0 841.89 L21.26 841.89" class="st1"/>
		</g>
		<g id="shape114-55" v:mID="114" v:groupContext="shape" transform="translate(200.11,-637.874)">
			<title>Sheet.114</title>
			<path d="M0 841.89 L77.95 841.89" class="st1"/>
		</g>
		<g id="shape119-58" v:mID="119" v:groupContext="shape" transform="translate(1034.54,189.842) rotate(90)">
			<title>Sheet.119</title>
			<path d="M0 841.89 L35.43 841.89" class="st2"/>
		</g>
		<g id="shape120-63" v:mID="120" v:groupContext="shape" transform="translate(1143.68,204.016) rotate(90)">
			<title>Sheet.120</title>
			<path d="M0 841.89 L35.43 841.89" class="st2"/>
		</g>
		<g id="shape121-68" v:mID="121" v:groupContext="shape" transform="translate(1127.15,189.842) rotate(90)">
			<title>Sheet.121</title>
			<path d="M0 841.89 L35.43 841.89" class="st2"/>
		</g>
		<g id="shape123-73" v:mID="123" v:groupContext="shape" transform="translate(1145.46,179.772) rotate(90)">
			<title>Arc - graphical.123</title>
			<v:userDefs>
				<v:ud v:nameU="visVersion" v:val="VT0(15):26"/>
			</v:userDefs>
			<path d="M18.65 841.89 A18.649 18.649 0 1 1 -18.65 841.89" class="st4"/>
		</g>
		<g id="shape126-80" v:mID="126" v:groupContext="shape" transform="translate(181.521,-599.528)">
			<title>Sheet.126</title>
			<desc>U6</desc>
			<v:textBlock v:margins="rect(4,4,4,4)" v:tabSpace="42.5197"/>
			<v:textRect cx="18.2172" cy="831.89" width="36.44" height="20"/>
			<rect x="0" y="821.89" width="36.4343" height="20" class="st6"/>
			<text x="11.33" y="835.49" class="st7" v:langID="1033"><v:paragraph v:horizAlign="1"/><v:tabList/>U6</text>		</g>
		<g id="shape127-83" v:mID="127" v:groupContext="shape" transform="translate(319.691,-582.362) scale(-1,1)">
			<title>Sheet.127</title>
			<desc>U9</desc>
			<v:textBlock v:margins="rect(4,4,4,4)" v:tabSpace="42.5197"/>
			<v:textRect cx="18.2172" cy="831.89" width="36.44" height="20"/>
			<rect x="0" y="821.89" width="36.4343" height="20" class="st6"/>
			<text x="-25.11" y="835.49" transform="scale(-1,1)" class="st7" v:langID="1033"><v:paragraph v:horizAlign="1"/><v:tabList/>U9</text>		</g>
		<g id="shape128-86" v:mID="128" v:groupContext="shape" transform="translate(301.764,-599.528) scale(-1,1)">
			<title>Sheet.128</title>
			<desc>U7</desc>
			<v:textBlock v:margins="rect(4,4,4,4)" v:tabSpace="42.5197"/>
			<v:textRect cx="18.2172" cy="831.89" width="36.44" height="20"/>
			<rect x="0" y="821.89" width="36.4343" height="20" class="st6"/>
			<text x="-25.11" y="835.49" transform="scale(-1,1)" class="st7" v:langID="1033"><v:paragraph v:horizAlign="1"/><v:tabList/>U7</text>		</g>
		<g id="shape129-89" v:mID="129" v:groupContext="shape" transform="translate(278.271,-681.732)">
			<title>Sheet.129</title>
			<desc>U8</desc>
			<v:textBlock v:margins="rect(4,4,4,4)" v:tabSpace="42.5197"/>
			<v:textRect cx="18.2172" cy="831.89" width="36.44" height="20"/>
			<rect x="0" y="821.89" width="36.4343" height="20" class="st6"/>
			<text x="11.33" y="835.49" class="st7" v:langID="1033"><v:paragraph v:horizAlign="1"/><v:tabList/>U8</text>		</g>
		<g id="shape133-92" v:mID="133" v:groupContext="shape" transform="translate(290.491,-637.638)">
			<title>Sheet.133</title>
			<path d="M0 841.89 L21.26 841.89" class="st1"/>
		</g>
		<g id="shape134-95" v:mID="134" v:groupContext="shape" transform="translate(325.924,-637.638)">
			<title>Sheet.134</title>
			<path d="M0 841.89 L77.95 841.89" class="st1"/>
		</g>
		<g id="shape139-98" v:mID="139" v:groupContext="shape" transform="translate(1160.36,190.079) rotate(90)">
			<title>Sheet.139</title>
			<path d="M0 841.89 L35.43 841.89" class="st2"/>
		</g>
		<g id="shape140-103" v:mID="140" v:groupContext="shape" transform="translate(1269.49,204.252) rotate(90)">
			<title>Sheet.140</title>
			<path d="M0 841.89 L35.43 841.89" class="st2"/>
		</g>
		<g id="shape141-108" v:mID="141" v:groupContext="shape" transform="translate(1252.96,190.079) rotate(90)">
			<title>Sheet.141</title>
			<path d="M0 841.89 L35.43 841.89" class="st2"/>
		</g>
		<g id="shape143-113" v:mID="143" v:groupContext="shape" transform="translate(1271.28,180.008) rotate(90)">
			<title>Arc - graphical.143</title>
			<v:userDefs>
				<v:ud v:nameU="visVersion" v:val="VT0(15):26"/>
			</v:userDefs>
			<path d="M18.65 841.89 A18.649 18.649 0 1 1 -18.65 841.89" class="st4"/>
		</g>
		<g id="shape146-120" v:mID="146" v:groupContext="shape" transform="translate(307.335,-599.291)">
			<title>Sheet.146</title>
			<desc>U10</desc>
			<v:textBlock v:margins="rect(4,4,4,4)" v:tabSpace="42.5197"/>
			<v:textRect cx="18.2172" cy="831.89" width="36.44" height="20"/>
			<rect x="0" y="821.89" width="36.4343" height="20" class="st6"/>
			<text x="8.29" y="835.49" class="st7" v:langID="1033"><v:paragraph v:horizAlign="1"/><v:tabList/>U10</text>		</g>
		<g id="shape147-123" v:mID="147" v:groupContext="shape" transform="translate(445.817,-582.205) scale(-1,1)">
			<title>Sheet.147</title>
			<desc>U13</desc>
			<v:textBlock v:margins="rect(4,4,4,4)" v:tabSpace="42.5197"/>
			<v:textRect cx="18.2172" cy="831.89" width="36.44" height="20"/>
			<rect x="0" y="821.89" width="36.4343" height="20" class="st6"/>
			<text x="-28.15" y="835.49" transform="scale(-1,1)" class="st7" v:langID="1033"><v:paragraph v:horizAlign="1"/><v:tabList/>U13</text>		</g>
		<g id="shape148-126" v:mID="148" v:groupContext="shape" transform="translate(427.578,-599.291) scale(-1,1)">
			<title>Sheet.148</title>
			<desc>U11</desc>
			<v:textBlock v:margins="rect(4,4,4,4)" v:tabSpace="42.5197"/>
			<v:textRect cx="18.2172" cy="831.89" width="36.44" height="20"/>
			<rect x="0" y="821.89" width="36.4343" height="20" class="st6"/>
			<text x="-28.15" y="835.49" transform="scale(-1,1)" class="st7" v:langID="1033"><v:paragraph v:horizAlign="1"/><v:tabList/>U11</text>		</g>
		<g id="shape149-129" v:mID="149" v:groupContext="shape" transform="translate(404.085,-681.496)">
			<title>Sheet.149</title>
			<desc>U12</desc>
			<v:textBlock v:margins="rect(4,4,4,4)" v:tabSpace="42.5197"/>
			<v:textRect cx="18.2172" cy="831.89" width="36.44" height="20"/>
			<rect x="0" y="821.89" width="36.4343" height="20" class="st6"/>
			<text x="8.29" y="835.49" class="st7" v:langID="1033"><v:paragraph v:horizAlign="1"/><v:tabList/>U12</text>		</g>
		<g id="shape153-132" v:mID="153" v:groupContext="shape" transform="translate(416.901,-637.717)">
			<title>Sheet.153</title>
			<path d="M0 841.89 L21.26 841.89" class="st1"/>
		</g>
		<g id="shape154-135" v:mID="154" v:groupContext="shape" transform="translate(452.334,-637.717)">
			<title>Sheet.154</title>
			<path d="M0 841.89 L77.95 841.89" class="st1"/>
		</g>
		<g id="shape159-138" v:mID="159" v:groupContext="shape" transform="translate(1286.77,190) rotate(90)">
			<title>Sheet.159</title>
			<path d="M0 841.89 L35.43 841.89" class="st2"/>
		</g>
		<g id="shape161-143" v:mID="161" v:groupContext="shape" transform="translate(1379.37,190) rotate(90)">
			<title>Sheet.161</title>
			<path d="M0 841.89 L35.43 841.89" class="st2"/>
		</g>
		<g id="shape163-148" v:mID="163" v:groupContext="shape" transform="translate(1397.69,179.929) rotate(90)">
			<title>Arc - graphical.163</title>
			<v:userDefs>
				<v:ud v:nameU="visVersion" v:val="VT0(15):26"/>
			</v:userDefs>
			<path d="M18.65 841.89 A18.649 18.649 0 1 1 -18.65 841.89" class="st4"/>
		</g>
		<g id="shape166-155" v:mID="166" v:groupContext="shape" transform="translate(433.745,-599.37)">
			<title>Sheet.166</title>
			<desc>U14</desc>
			<v:textBlock v:margins="rect(4,4,4,4)" v:tabSpace="42.5197"/>
			<v:textRect cx="18.2172" cy="831.89" width="36.44" height="20"/>
			<rect x="0" y="821.89" width="36.4343" height="20" class="st6"/>
			<text x="8.29" y="835.49" class="st7" v:langID="1033"><v:paragraph v:horizAlign="1"/><v:tabList/>U14</text>		</g>
		<g id="shape168-158" v:mID="168" v:groupContext="shape" transform="translate(553.987,-599.37) scale(-1,1)">
			<title>Sheet.168</title>
			<desc>U15</desc>
			<v:textBlock v:margins="rect(4,4,4,4)" v:tabSpace="42.5197"/>
			<v:textRect cx="18.2172" cy="831.89" width="36.44" height="20"/>
			<rect x="0" y="821.89" width="36.4343" height="20" class="st6"/>
			<text x="-28.15" y="835.49" transform="scale(-1,1)" class="st7" v:langID="1033"><v:paragraph v:horizAlign="1"/><v:tabList/>U15</text>		</g>
		<g id="shape169-161" v:mID="169" v:groupContext="shape" transform="translate(530.495,-681.575)">
			<title>Sheet.169</title>
			<desc>U16</desc>
			<v:textBlock v:margins="rect(4,4,4,4)" v:tabSpace="42.5197"/>
			<v:textRect cx="18.2172" cy="831.89" width="36.44" height="20"/>
			<rect x="0" y="821.89" width="36.4343" height="20" class="st6"/>
			<text x="8.29" y="835.49" class="st7" v:langID="1033"><v:paragraph v:horizAlign="1"/><v:tabList/>U16</text>		</g>
		<g id="shape173-164" v:mID="173" v:groupContext="shape" transform="translate(545.669,-637.795)">
			<title>Sheet.173</title>
			<path d="M0 841.89 L21.26 841.89" class="st1"/>
		</g>
		<g id="group186-167" transform="translate(557.717,-620.787)" v:mID="186" v:groupContext="group">
			<title>Sheet.186</title>
			<g id="shape174-168" v:mID="174" v:groupContext="shape" transform="translate(1.41833,-5.10238) rotate(6.73593E-05)">
				<title>Sheet.174</title>
				<path d="M0 841.89 L17.01 841.89" class="st8"/>
			</g>
			<g id="shape175-171" v:mID="175" v:groupContext="shape" transform="translate(683.433,320.315) rotate(53.1301)">
				<title>Sheet.175</title>
				<path d="M0 841.89 L14.17 841.89" class="st8"/>
			</g>
			<g id="shape176-174" v:mID="176" v:groupContext="shape" transform="translate(-672.094,331.653) rotate(-53.1301)">
				<title>Sheet.176</title>
				<path d="M0 841.89 L14.17 841.89" class="st8"/>
			</g>
			<g id="shape177-177" v:mID="177" v:groupContext="shape" transform="translate(580.202,1462.56) rotate(138.013)">
				<title>Sheet.177</title>
				<path d="M0 841.89 L7.63 841.89" class="st8"/>
			</g>
			<g id="shape178-180" v:mID="178" v:groupContext="shape" transform="translate(574.533,1462.56) rotate(138.013)">
				<title>Sheet.178</title>
				<path d="M0 841.89 L7.63 841.89" class="st8"/>
			</g>
			<g id="shape179-183" v:mID="179" v:groupContext="shape" transform="translate(568.864,1462.56) rotate(138.013)">
				<title>Sheet.179</title>
				<path d="M0 841.89 L7.63 841.89" class="st8"/>
			</g>
		</g>
		<g id="shape187-186" v:mID="187" v:groupContext="shape" transform="translate(891.78,125.843) rotate(90)">
			<title>Sheet.187</title>
			<path d="M0 841.89 L168.96 841.89" class="st9"/>
		</g>
	</g>
</svg>
