<?xml version="1.0" encoding="UTF-8" standalone="no"?>
<!DOCTYPE svg PUBLIC "-//W3C//DTD SVG 1.1//EN" "http://www.w3.org/Graphics/SVG/1.1/DTD/svg11.dtd">
<!-- Generated by Microsoft Visio, SVG Export globDispl.svg globDispl -->
<svg xmlns="http://www.w3.org/2000/svg" xmlns:xlink="http://www.w3.org/1999/xlink" xmlns:ev="http://www.w3.org/2001/xml-events"
		xmlns:v="http://schemas.microsoft.com/visio/2003/SVGExtensions/" width="8.26772in" height="11.6929in"
		viewBox="0 0 595.276 841.889" xml:space="preserve" color-interpolation-filters="sRGB" class="st13">
	<v:documentProperties v:langID="1033">
		<v:userDefs>
			<v:ud v:nameU="msvNoAutoConnect" v:val="VT0(1):26"/>
		</v:userDefs>
	</v:documentProperties>

	<style type="text/css">
	<![CDATA[
		.st1 {fill:none;stroke:none;stroke-width:1}
		.st2 {fill:none}
		.st3 {stroke:#000000;stroke-linecap:round;stroke-linejoin:round;stroke-width:2.25}
		.st4 {marker-end:url(#mrkr1-24);stroke:#000000;stroke-linecap:round;stroke-linejoin:round;stroke-width:0.749999}
		.st5 {fill:#000000;fill-opacity:1;stroke:#000000;stroke-opacity:1;stroke-width:0.22935751498657}
		.st6 {marker-end:url(#mrkr1-45);stroke:#000000;stroke-linecap:round;stroke-linejoin:round;stroke-width:0.999999}
		.st7 {fill:#000000;fill-opacity:1;stroke:#000000;stroke-opacity:1;stroke-width:0.35714256584059}
		.st8 {fill:none;stroke:none;stroke-linecap:round;stroke-linejoin:round;stroke-width:0.749999}
		.st9 {fill:#000000;font-family:Calibri;font-size:1.00001em}
		.st10 {stroke:#000000;stroke-dasharray:14.25,3.74999,5.24999,3.74999;stroke-linecap:round;stroke-linejoin:round;stroke-width:0.749999}
		.st11 {stroke:#000000;stroke-linecap:round;stroke-linejoin:round;stroke-width:0.749999}
		.st12 {stroke:#000000;stroke-linecap:round;stroke-linejoin:round;stroke-width:0.75}
		.st13 {fill:none;fill-rule:evenodd;font-size:12px;overflow:visible;stroke-linecap:square;stroke-miterlimit:3}
	]]>
	</style>

	<defs id="Markers">
		<g id="lend1">
			<path d="M 1 -1 L 0 0 L 1 1 " style="stroke-linecap:round;stroke-linejoin:round;fill:none"/>
		</g>
		<marker id="mrkr1-24" class="st5" v:arrowType="1" v:arrowSize="2" orient="auto" markerUnits="strokeWidth"
				overflow="visible">
			<use xlink:href="#lend1" transform="scale(-4.3600053831179,-4.3600053831179) "/>
		</marker>
		<marker id="mrkr1-45" class="st7" v:arrowType="1" v:arrowSize="1" orient="auto" markerUnits="strokeWidth"
				overflow="visible">
			<use xlink:href="#lend1" transform="scale(-2.8000022838116,-2.8000022838116) "/>
		</marker>
	</defs>
	<g v:mID="0" v:index="1" v:groupContext="foregroundPage">
		<title>globDispl</title>
		<v:pageProperties v:drawingScale="0.0393701" v:pageScale="0.0393701" v:drawingUnits="24" v:shadowOffsetX="8.50393"
				v:shadowOffsetY="-8.50393"/>
		<v:layer v:name="Electrical" v:index="0"/>
		<g id="group1-1" transform="translate(39.8493,-637.792)" v:mID="1" v:groupContext="group">
			<title>Sheet.1</title>
			<g id="shape2-2" v:mID="2" v:groupContext="shape">
				<title>Sheet.2</title>
				<path d="M0 841.89 L21.26 841.89 L0 841.89 Z" class="st1"/>
			</g>
			<g id="group3-4" v:mID="3" v:groupContext="group">
				<title>Sheet.3</title>
				<g id="shape4-5" v:mID="4" v:groupContext="shape">
					<title>Sheet.4</title>
					<path d="M0 841.89 L21.26 841.89 L0 841.89 Z" class="st1"/>
				</g>
				<g id="shape5-7" v:mID="5" v:groupContext="shape">
					<title>Sheet.5</title>
					<path d="M0 841.89 L21.26 841.89 L0 841.89 Z" class="st2"/>
					<path d="M0 841.89 L21.26 841.89" class="st3"/>
				</g>
			</g>
		</g>
		<g id="group6-10" transform="translate(75.2822,-637.792)" v:mID="6" v:groupContext="group">
			<title>Sheet.6</title>
			<g id="shape7-11" v:mID="7" v:groupContext="shape">
				<title>Sheet.7</title>
				<path d="M0 841.89 L77.95 841.89 L0 841.89 Z" class="st1"/>
			</g>
			<g id="group8-13" v:mID="8" v:groupContext="group">
				<title>Sheet.8</title>
				<g id="shape9-14" v:mID="9" v:groupContext="shape">
					<title>Sheet.9</title>
					<path d="M0 841.89 L77.95 841.89 L0 841.89 Z" class="st1"/>
				</g>
				<g id="shape10-16" v:mID="10" v:groupContext="shape">
					<title>Sheet.10</title>
					<path d="M0 841.89 L77.95 841.89 L0 841.89 Z" class="st2"/>
					<path d="M0 841.89 L77.95 841.89" class="st3"/>
				</g>
			</g>
		</g>
		<g id="shape11-19" v:mID="11" v:groupContext="shape" transform="translate(891.493,204.094) rotate(90)">
			<title>Sheet.11</title>
			<path d="M0 841.89 L35.43 841.89" class="st4"/>
		</g>
		<g id="shape12-25" v:mID="12" v:groupContext="shape" transform="translate(909.71,189.921) rotate(90)">
			<title>Sheet.12</title>
			<path d="M0 841.89 L35.43 841.89" class="st4"/>
		</g>
		<g id="shape13-30" v:mID="13" v:groupContext="shape" transform="translate(1018.85,204.094) rotate(90)">
			<title>Sheet.13</title>
			<path d="M0 841.89 L35.43 841.89" class="st4"/>
		</g>
		<g id="shape14-35" v:mID="14" v:groupContext="shape" transform="translate(1002.32,189.921) rotate(90)">
			<title>Sheet.14</title>
			<path d="M0 841.89 L35.43 841.89" class="st4"/>
		</g>
		<g id="shape15-40" v:mID="15" v:groupContext="shape" transform="translate(1001.99,161.201) rotate(90)">
			<title>Arc - graphical.103</title>
			<v:userDefs>
				<v:ud v:nameU="visVersion" v:val="VT0(15):26"/>
			</v:userDefs>
			<path d="M37.3 823.24 A18.65 18.65 0 0 1 0 823.24" class="st6"/>
		</g>
		<g id="shape16-46" v:mID="16" v:groupContext="shape" transform="translate(41.5187,-582.361)">
			<title>Sheet.16</title>
			<desc>U1</desc>
			<v:userDefs/>
			<v:textBlock v:margins="rect(3.99999,3.99999,3.99999,3.99999)" v:tabSpace="42.5196"/>
			<v:textRect cx="18.2168" cy="831.889" width="36.44" height="20"/>
			<rect x="0" y="821.889" width="36.4342" height="20" class="st8"/>
			<text x="11.33" y="835.49" class="st9" v:langID="1033"><v:paragraph v:horizAlign="1"/><v:tabList/>U1</text>		</g>
		<g id="shape17-49" v:mID="17" v:groupContext="shape" transform="translate(56.6932,-599.448)">
			<title>Sheet.17</title>
			<desc>U2</desc>
			<v:userDefs/>
			<v:textBlock v:margins="rect(3.99999,3.99999,3.99999,3.99999)" v:tabSpace="42.5196"/>
			<v:textRect cx="18.2168" cy="831.889" width="36.44" height="20"/>
			<rect x="0" y="821.889" width="36.4342" height="20" class="st8"/>
			<text x="11.33" y="835.49" class="st9" v:langID="1033"><v:paragraph v:horizAlign="1"/><v:tabList/>U2</text>		</g>
		<g id="shape18-52" v:mID="18" v:groupContext="shape" transform="translate(195.174,-582.361) scale(-1,1)">
			<title>Sheet.18</title>
			<desc>U5</desc>
			<v:userDefs/>
			<v:textBlock v:margins="rect(3.99999,3.99999,3.99999,3.99999)" v:tabSpace="42.5196"/>
			<v:textRect cx="18.2168" cy="831.889" width="36.44" height="20"/>
			<rect x="0" y="821.889" width="36.4342" height="20" class="st8"/>
			<text x="-25.11" y="835.49" transform="scale(-1,1)" class="st9" v:langID="1033"><v:paragraph v:horizAlign="1"/><v:tabList/>U5</text>		</g>
		<g id="shape19-55" v:mID="19" v:groupContext="shape" transform="translate(176.935,-599.448) scale(-1,1)">
			<title>Sheet.19</title>
			<desc>U3</desc>
			<v:userDefs/>
			<v:textBlock v:margins="rect(3.99999,3.99999,3.99999,3.99999)" v:tabSpace="42.5196"/>
			<v:textRect cx="18.2168" cy="831.889" width="36.44" height="20"/>
			<rect x="0" y="821.889" width="36.4342" height="20" class="st8"/>
			<text x="-25.11" y="835.49" transform="scale(-1,1)" class="st9" v:langID="1033"><v:paragraph v:horizAlign="1"/><v:tabList/>U3</text>		</g>
		<g id="shape20-58" v:mID="20" v:groupContext="shape" transform="translate(153.443,-681.653)">
			<title>Sheet.20</title>
			<desc>U4</desc>
			<v:userDefs/>
			<v:textBlock v:margins="rect(3.99999,3.99999,3.99999,3.99999)" v:tabSpace="42.5196"/>
			<v:textRect cx="18.2168" cy="831.889" width="36.44" height="20"/>
			<rect x="0" y="821.889" width="36.4342" height="20" class="st8"/>
			<text x="11.33" y="835.49" class="st9" v:langID="1033"><v:paragraph v:horizAlign="1"/><v:tabList/>U4</text>		</g>
		<g id="group21-61" transform="translate(164.677,-637.871)" v:mID="21" v:groupContext="group">
			<title>Sheet.21</title>
			<g id="shape22-62" v:mID="22" v:groupContext="shape">
				<title>Sheet.22</title>
				<path d="M0 841.89 L21.26 841.89 L0 841.89 Z" class="st1"/>
			</g>
			<g id="group23-64" v:mID="23" v:groupContext="group">
				<title>Sheet.23</title>
				<g id="shape24-65" v:mID="24" v:groupContext="shape">
					<title>Sheet.24</title>
					<path d="M0 841.89 L21.26 841.89 L0 841.89 Z" class="st1"/>
				</g>
				<g id="shape25-67" v:mID="25" v:groupContext="shape">
					<title>Sheet.25</title>
					<path d="M0 841.89 L21.26 841.89 L0 841.89 Z" class="st2"/>
					<path d="M0 841.89 L21.26 841.89" class="st3"/>
				</g>
			</g>
		</g>
		<g id="group26-70" transform="translate(200.11,-637.871)" v:mID="26" v:groupContext="group">
			<title>Sheet.26</title>
			<g id="shape27-71" v:mID="27" v:groupContext="shape">
				<title>Sheet.27</title>
				<path d="M0 841.89 L77.95 841.89 L0 841.89 Z" class="st1"/>
			</g>
			<g id="group28-73" v:mID="28" v:groupContext="group">
				<title>Sheet.28</title>
				<g id="shape29-74" v:mID="29" v:groupContext="shape">
					<title>Sheet.29</title>
					<path d="M0 841.89 L77.95 841.89 L0 841.89 Z" class="st1"/>
				</g>
				<g id="shape30-76" v:mID="30" v:groupContext="shape">
					<title>Sheet.30</title>
					<path d="M0 841.89 L77.95 841.89 L0 841.89 Z" class="st2"/>
					<path d="M0 841.89 L77.95 841.89" class="st3"/>
				</g>
			</g>
		</g>
		<g id="shape31-79" v:mID="31" v:groupContext="shape" transform="translate(1034.54,189.842) rotate(90)">
			<title>Sheet.31</title>
			<path d="M0 841.89 L35.43 841.89" class="st4"/>
		</g>
		<g id="shape32-84" v:mID="32" v:groupContext="shape" transform="translate(1143.68,204.016) rotate(90)">
			<title>Sheet.32</title>
			<path d="M0 841.89 L35.43 841.89" class="st4"/>
		</g>
		<g id="shape33-89" v:mID="33" v:groupContext="shape" transform="translate(1127.15,189.842) rotate(90)">
			<title>Sheet.33</title>
			<path d="M0 841.89 L35.43 841.89" class="st4"/>
		</g>
		<g id="shape34-94" v:mID="34" v:groupContext="shape" transform="translate(1126.81,161.122) rotate(90)">
			<title>Arc - graphical.123</title>
			<v:userDefs>
				<v:ud v:nameU="visVersion" v:val="VT0(15):26"/>
			</v:userDefs>
			<path d="M37.3 823.24 A18.65 18.65 0 0 1 0 823.24" class="st6"/>
		</g>
		<g id="shape35-99" v:mID="35" v:groupContext="shape" transform="translate(181.521,-599.527)">
			<title>Sheet.35</title>
			<desc>U6</desc>
			<v:userDefs/>
			<v:textBlock v:margins="rect(3.99999,3.99999,3.99999,3.99999)" v:tabSpace="42.5196"/>
			<v:textRect cx="18.2168" cy="831.889" width="36.44" height="20"/>
			<rect x="0" y="821.889" width="36.4342" height="20" class="st8"/>
			<text x="11.33" y="835.49" class="st9" v:langID="1033"><v:paragraph v:horizAlign="1"/><v:tabList/>U6</text>		</g>
		<g id="shape36-102" v:mID="36" v:groupContext="shape" transform="translate(319.691,-582.361) scale(-1,1)">
			<title>Sheet.36</title>
			<desc>U9</desc>
			<v:userDefs/>
			<v:textBlock v:margins="rect(3.99999,3.99999,3.99999,3.99999)" v:tabSpace="42.5196"/>
			<v:textRect cx="18.2168" cy="831.889" width="36.44" height="20"/>
			<rect x="0" y="821.889" width="36.4342" height="20" class="st8"/>
			<text x="-25.11" y="835.49" transform="scale(-1,1)" class="st9" v:langID="1033"><v:paragraph v:horizAlign="1"/><v:tabList/>U9</text>		</g>
		<g id="shape37-105" v:mID="37" v:groupContext="shape" transform="translate(301.764,-599.527) scale(-1,1)">
			<title>Sheet.37</title>
			<desc>U7</desc>
			<v:userDefs/>
			<v:textBlock v:margins="rect(3.99999,3.99999,3.99999,3.99999)" v:tabSpace="42.5196"/>
			<v:textRect cx="18.2168" cy="831.889" width="36.44" height="20"/>
			<rect x="0" y="821.889" width="36.4342" height="20" class="st8"/>
			<text x="-25.11" y="835.49" transform="scale(-1,1)" class="st9" v:langID="1033"><v:paragraph v:horizAlign="1"/><v:tabList/>U7</text>		</g>
		<g id="shape38-108" v:mID="38" v:groupContext="shape" transform="translate(278.271,-681.731)">
			<title>Sheet.38</title>
			<desc>U8</desc>
			<v:userDefs/>
			<v:textBlock v:margins="rect(3.99999,3.99999,3.99999,3.99999)" v:tabSpace="42.5196"/>
			<v:textRect cx="18.2168" cy="831.889" width="36.44" height="20"/>
			<rect x="0" y="821.889" width="36.4342" height="20" class="st8"/>
			<text x="11.33" y="835.49" class="st9" v:langID="1033"><v:paragraph v:horizAlign="1"/><v:tabList/>U8</text>		</g>
		<g id="group39-111" transform="translate(290.491,-637.635)" v:mID="39" v:groupContext="group">
			<title>Sheet.39</title>
			<g id="shape40-112" v:mID="40" v:groupContext="shape">
				<title>Sheet.40</title>
				<path d="M0 841.89 L21.26 841.89 L0 841.89 Z" class="st1"/>
			</g>
			<g id="group41-114" v:mID="41" v:groupContext="group">
				<title>Sheet.41</title>
				<g id="shape42-115" v:mID="42" v:groupContext="shape">
					<title>Sheet.42</title>
					<path d="M0 841.89 L21.26 841.89 L0 841.89 Z" class="st1"/>
				</g>
				<g id="shape43-117" v:mID="43" v:groupContext="shape">
					<title>Sheet.43</title>
					<path d="M0 841.89 L21.26 841.89 L0 841.89 Z" class="st2"/>
					<path d="M0 841.89 L21.26 841.89" class="st3"/>
				</g>
			</g>
		</g>
		<g id="group44-120" transform="translate(325.924,-637.635)" v:mID="44" v:groupContext="group">
			<title>Sheet.44</title>
			<g id="shape45-121" v:mID="45" v:groupContext="shape">
				<title>Sheet.45</title>
				<path d="M0 841.89 L77.95 841.89 L0 841.89 Z" class="st1"/>
			</g>
			<g id="group46-123" v:mID="46" v:groupContext="group">
				<title>Sheet.46</title>
				<g id="shape47-124" v:mID="47" v:groupContext="shape">
					<title>Sheet.47</title>
					<path d="M0 841.89 L77.95 841.89 L0 841.89 Z" class="st1"/>
				</g>
				<g id="shape48-126" v:mID="48" v:groupContext="shape">
					<title>Sheet.48</title>
					<path d="M0 841.89 L77.95 841.89 L0 841.89 Z" class="st2"/>
					<path d="M0 841.89 L77.95 841.89" class="st3"/>
				</g>
			</g>
		</g>
		<g id="shape49-129" v:mID="49" v:groupContext="shape" transform="translate(1160.36,190.079) rotate(90)">
			<title>Sheet.49</title>
			<path d="M0 841.89 L35.43 841.89" class="st4"/>
		</g>
		<g id="shape50-134" v:mID="50" v:groupContext="shape" transform="translate(1269.49,204.252) rotate(90)">
			<title>Sheet.50</title>
			<path d="M0 841.89 L35.43 841.89" class="st4"/>
		</g>
		<g id="shape51-139" v:mID="51" v:groupContext="shape" transform="translate(1252.96,190.079) rotate(90)">
			<title>Sheet.51</title>
			<path d="M0 841.89 L35.43 841.89" class="st4"/>
		</g>
		<g id="shape52-144" v:mID="52" v:groupContext="shape" transform="translate(1252.63,161.358) rotate(90)">
			<title>Arc - graphical.143</title>
			<v:userDefs>
				<v:ud v:nameU="visVersion" v:val="VT0(15):26"/>
			</v:userDefs>
			<path d="M37.3 823.24 A18.65 18.65 0 0 1 0 823.24" class="st6"/>
		</g>
		<g id="shape53-149" v:mID="53" v:groupContext="shape" transform="translate(307.335,-599.29)">
			<title>Sheet.53</title>
			<desc>U10</desc>
			<v:userDefs/>
			<v:textBlock v:margins="rect(3.99999,3.99999,3.99999,3.99999)" v:tabSpace="42.5196"/>
			<v:textRect cx="18.2168" cy="831.889" width="36.44" height="20"/>
			<rect x="0" y="821.889" width="36.4342" height="20" class="st8"/>
			<text x="8.29" y="835.49" class="st9" v:langID="1033"><v:paragraph v:horizAlign="1"/><v:tabList/>U10</text>		</g>
		<g id="shape54-152" v:mID="54" v:groupContext="shape" transform="translate(445.817,-582.204) scale(-1,1)">
			<title>Sheet.54</title>
			<desc>U13</desc>
			<v:userDefs/>
			<v:textBlock v:margins="rect(3.99999,3.99999,3.99999,3.99999)" v:tabSpace="42.5196"/>
			<v:textRect cx="18.2168" cy="831.889" width="36.44" height="20"/>
			<rect x="0" y="821.889" width="36.4342" height="20" class="st8"/>
			<text x="-28.15" y="835.49" transform="scale(-1,1)" class="st9" v:langID="1033"><v:paragraph v:horizAlign="1"/><v:tabList/>U13</text>		</g>
		<g id="shape55-155" v:mID="55" v:groupContext="shape" transform="translate(427.578,-599.29) scale(-1,1)">
			<title>Sheet.55</title>
			<desc>U11</desc>
			<v:userDefs/>
			<v:textBlock v:margins="rect(3.99999,3.99999,3.99999,3.99999)" v:tabSpace="42.5196"/>
			<v:textRect cx="18.2168" cy="831.889" width="36.44" height="20"/>
			<rect x="0" y="821.889" width="36.4342" height="20" class="st8"/>
			<text x="-28.15" y="835.49" transform="scale(-1,1)" class="st9" v:langID="1033"><v:paragraph v:horizAlign="1"/><v:tabList/>U11</text>		</g>
		<g id="shape56-158" v:mID="56" v:groupContext="shape" transform="translate(404.085,-681.495)">
			<title>Sheet.56</title>
			<desc>U12</desc>
			<v:userDefs/>
			<v:textBlock v:margins="rect(3.99999,3.99999,3.99999,3.99999)" v:tabSpace="42.5196"/>
			<v:textRect cx="18.2168" cy="831.889" width="36.44" height="20"/>
			<rect x="0" y="821.889" width="36.4342" height="20" class="st8"/>
			<text x="8.29" y="835.49" class="st9" v:langID="1033"><v:paragraph v:horizAlign="1"/><v:tabList/>U12</text>		</g>
		<g id="group57-161" transform="translate(416.901,-637.714)" v:mID="57" v:groupContext="group">
			<title>Sheet.57</title>
			<g id="shape58-162" v:mID="58" v:groupContext="shape">
				<title>Sheet.58</title>
				<path d="M0 841.89 L21.26 841.89 L0 841.89 Z" class="st1"/>
			</g>
			<g id="group59-164" v:mID="59" v:groupContext="group">
				<title>Sheet.59</title>
				<g id="shape60-165" v:mID="60" v:groupContext="shape">
					<title>Sheet.60</title>
					<path d="M0 841.89 L21.26 841.89 L0 841.89 Z" class="st1"/>
				</g>
				<g id="shape61-167" v:mID="61" v:groupContext="shape">
					<title>Sheet.61</title>
					<path d="M0 841.89 L21.26 841.89 L0 841.89 Z" class="st2"/>
					<path d="M0 841.89 L21.26 841.89" class="st3"/>
				</g>
			</g>
		</g>
		<g id="group62-170" transform="translate(452.334,-637.714)" v:mID="62" v:groupContext="group">
			<title>Sheet.62</title>
			<g id="shape63-171" v:mID="63" v:groupContext="shape">
				<title>Sheet.63</title>
				<path d="M0 841.89 L77.95 841.89 L0 841.89 Z" class="st1"/>
			</g>
			<g id="group64-173" v:mID="64" v:groupContext="group">
				<title>Sheet.64</title>
				<g id="shape65-174" v:mID="65" v:groupContext="shape">
					<title>Sheet.65</title>
					<path d="M0 841.89 L77.95 841.89 L0 841.89 Z" class="st1"/>
				</g>
				<g id="shape66-176" v:mID="66" v:groupContext="shape">
					<title>Sheet.66</title>
					<path d="M0 841.89 L77.95 841.89 L0 841.89 Z" class="st2"/>
					<path d="M0 841.89 L77.95 841.89" class="st3"/>
				</g>
			</g>
		</g>
		<g id="shape67-179" v:mID="67" v:groupContext="shape" transform="translate(1286.77,190) rotate(90)">
			<title>Sheet.67</title>
			<path d="M0 841.89 L35.43 841.89" class="st4"/>
		</g>
		<g id="shape68-184" v:mID="68" v:groupContext="shape" transform="translate(1379.37,190) rotate(90)">
			<title>Sheet.68</title>
			<path d="M0 841.89 L35.43 841.89" class="st4"/>
		</g>
		<g id="shape70-189" v:mID="70" v:groupContext="shape" transform="translate(433.745,-599.369)">
			<title>Sheet.70</title>
			<desc>U14</desc>
			<v:userDefs/>
			<v:textBlock v:margins="rect(3.99999,3.99999,3.99999,3.99999)" v:tabSpace="42.5196"/>
			<v:textRect cx="18.2168" cy="831.889" width="36.44" height="20"/>
			<rect x="0" y="821.889" width="36.4342" height="20" class="st8"/>
			<text x="8.29" y="835.49" class="st9" v:langID="1033"><v:paragraph v:horizAlign="1"/><v:tabList/>U14</text>		</g>
		<g id="shape71-192" v:mID="71" v:groupContext="shape" transform="translate(553.987,-599.369) scale(-1,1)">
			<title>Sheet.71</title>
			<desc>U15</desc>
			<v:userDefs/>
			<v:textBlock v:margins="rect(3.99999,3.99999,3.99999,3.99999)" v:tabSpace="42.5196"/>
			<v:textRect cx="18.2168" cy="831.889" width="36.44" height="20"/>
			<rect x="0" y="821.889" width="36.4342" height="20" class="st8"/>
			<text x="-28.15" y="835.49" transform="scale(-1,1)" class="st9" v:langID="1033"><v:paragraph v:horizAlign="1"/><v:tabList/>U15</text>		</g>
		<g id="group73-195" transform="translate(545.669,-637.792)" v:mID="73" v:groupContext="group">
			<title>Sheet.73</title>
			<g id="shape74-196" v:mID="74" v:groupContext="shape">
				<title>Sheet.74</title>
				<path d="M0 841.89 L21.26 841.89 L0 841.89 Z" class="st1"/>
			</g>
			<g id="group75-198" v:mID="75" v:groupContext="group">
				<title>Sheet.75</title>
				<g id="shape76-199" v:mID="76" v:groupContext="shape">
					<title>Sheet.76</title>
					<path d="M0 841.89 L21.26 841.89 L0 841.89 Z" class="st1"/>
				</g>
				<g id="shape77-201" v:mID="77" v:groupContext="shape">
					<title>Sheet.77</title>
					<path d="M0 841.89 L21.26 841.89 L0 841.89 Z" class="st2"/>
					<path d="M0 841.89 L21.26 841.89" class="st3"/>
				</g>
			</g>
		</g>
		<g id="group78-204" transform="translate(891.777,144.045) rotate(90)" v:mID="78" v:groupContext="group">
			<title>Sheet.78</title>
			<g id="shape79-205" v:mID="79" v:groupContext="shape">
				<title>Sheet.79</title>
				<path d="M0 841.89 L109.66 841.89 L0 841.89 Z" class="st1"/>
			</g>
			<g id="group80-207" v:mID="80" v:groupContext="group">
				<title>Sheet.80</title>
				<g id="shape81-208" v:mID="81" v:groupContext="shape">
					<title>Sheet.81</title>
					<path d="M0 841.89 L109.66 841.89 L0 841.89 Z" class="st1"/>
				</g>
				<g id="shape82-210" v:mID="82" v:groupContext="shape">
					<title>Sheet.82</title>
					<path d="M0 841.89 L109.66 841.89 L0 841.89 Z" class="st2"/>
					<path d="M0 841.89 L109.66 841.89" class="st10"/>
				</g>
			</g>
		</g>
		<g id="group83-213" transform="translate(557.005,-620.786)" v:mID="83" v:groupContext="group">
			<title>Sheet.83</title>
			<g id="group84-214" transform="translate(1.41883,-5.10274) rotate(6.73593E-05)" v:mID="84" v:groupContext="group">
				<title>Sheet.84</title>
				<g id="shape85-215" v:mID="85" v:groupContext="shape">
					<title>Sheet.85</title>
					<path d="M0 841.89 L17.01 841.89 L0 841.89 Z" class="st1"/>
				</g>
				<g id="shape86-217" v:mID="86" v:groupContext="shape">
					<title>Sheet.86</title>
					<path d="M0 841.89 L17.01 841.89 L0 841.89 Z" class="st2"/>
					<path d="M0 841.89 L17.01 841.89" class="st11"/>
				</g>
			</g>
			<g id="group87-220" transform="translate(580.201,1462.56) rotate(138.013)" v:mID="87" v:groupContext="group">
				<title>Sheet.87</title>
				<g id="shape88-221" v:mID="88" v:groupContext="shape">
					<title>Sheet.88</title>
					<path d="M0 841.89 L7.63 841.89 L0 841.89 Z" class="st1"/>
				</g>
				<g id="shape89-223" v:mID="89" v:groupContext="shape">
					<title>Sheet.89</title>
					<path d="M0 841.89 L7.63 841.89 L0 841.89 Z" class="st2"/>
					<path d="M0 841.89 L7.63 841.89" class="st11"/>
				</g>
			</g>
			<g id="group90-226" transform="translate(574.532,1462.56) rotate(138.013)" v:mID="90" v:groupContext="group">
				<title>Sheet.90</title>
				<g id="shape91-227" v:mID="91" v:groupContext="shape">
					<title>Sheet.91</title>
					<path d="M0 841.89 L7.63 841.89 L0 841.89 Z" class="st1"/>
				</g>
				<g id="shape92-229" v:mID="92" v:groupContext="shape">
					<title>Sheet.92</title>
					<path d="M0 841.89 L7.63 841.89 L0 841.89 Z" class="st2"/>
					<path d="M0 841.89 L7.63 841.89" class="st11"/>
				</g>
			</g>
			<g id="group93-232" transform="translate(568.863,1462.56) rotate(138.013)" v:mID="93" v:groupContext="group">
				<title>Sheet.93</title>
				<g id="shape94-233" v:mID="94" v:groupContext="shape">
					<title>Sheet.94</title>
					<path d="M0 841.89 L7.63 841.89 L0 841.89 Z" class="st1"/>
				</g>
				<g id="shape95-235" v:mID="95" v:groupContext="shape">
					<title>Sheet.95</title>
					<path d="M0 841.89 L7.63 841.89 L0 841.89 Z" class="st2"/>
					<path d="M0 841.89 L7.63 841.89" class="st11"/>
				</g>
			</g>
			<g id="shape96-238" v:mID="96" v:groupContext="shape" transform="translate(-823.46,836.785) rotate(-90)">
				<title>Sheet.96</title>
				<path d="M0 841.89 L11.91 841.89 L0 841.89 Z" class="st2"/>
				<path d="M0 841.89 L11.91 841.89" class="st12"/>
			</g>
			<g id="shape97-241" v:mID="97" v:groupContext="shape" transform="translate(18.4278,1666.77) rotate(180)">
				<title>Sheet.97</title>
				<path d="M0 841.89 L17.15 841.89 L0 841.89 Z" class="st2"/>
				<path d="M0 841.89 L17.15 841.89" class="st12"/>
			</g>
			<g id="shape98-244" v:mID="98" v:groupContext="shape" transform="translate(-840.611,836.785) rotate(-90)">
				<title>Sheet.98</title>
				<path d="M0 841.89 L11.91 841.89 L0 841.89 Z" class="st2"/>
				<path d="M0 841.89 L11.91 841.89" class="st12"/>
			</g>
		</g>
	</g>
</svg>
