<?xml version="1.0" encoding="UTF-8" standalone="no"?>
<!DOCTYPE svg PUBLIC "-//W3C//DTD SVG 1.1//EN" "http://www.w3.org/Graphics/SVG/1.1/DTD/svg11.dtd">
<!-- Generated by Microsoft Visio, SVG Export localDispl.svg localDispl -->
<svg xmlns="http://www.w3.org/2000/svg" xmlns:xlink="http://www.w3.org/1999/xlink" xmlns:ev="http://www.w3.org/2001/xml-events"
		xmlns:v="http://schemas.microsoft.com/visio/2003/SVGExtensions/" width="8.26772in" height="11.6929in"
		viewBox="0 0 595.276 841.889" xml:space="preserve" color-interpolation-filters="sRGB" class="st13">
	<v:documentProperties v:langID="1033">
		<v:userDefs>
			<v:ud v:nameU="msvNoAutoConnect" v:val="VT0(1):26"/>
		</v:userDefs>
	</v:documentProperties>

	<style type="text/css">
	<![CDATA[
		.st1 {fill:none}
		.st2 {stroke:#000000;stroke-linecap:round;stroke-linejoin:round;stroke-width:2.25}
		.st3 {marker-end:url(#mrkr1-12);stroke:#000000;stroke-linecap:round;stroke-linejoin:round;stroke-width:0.749999}
		.st4 {fill:#000000;fill-opacity:1;stroke:#000000;stroke-opacity:1;stroke-width:0.22935754622792}
		.st5 {fill:#000000;stroke:#000000;stroke-linecap:round;stroke-linejoin:round;stroke-width:0.749999}
		.st6 {marker-end:url(#mrkr1-39);stroke:#000000;stroke-linecap:round;stroke-linejoin:round;stroke-width:0.999999}
		.st7 {fill:#000000;fill-opacity:1;stroke:#000000;stroke-opacity:1;stroke-width:0.35714252989067}
		.st8 {fill:none;stroke:none;stroke-linecap:round;stroke-linejoin:round;stroke-width:0.749999}
		.st9 {fill:#000000;font-family:Calibri;font-size:1.00001em}
		.st10 {stroke:#000000;stroke-dasharray:14.25,3.74999,5.24999,3.74999;stroke-linecap:round;stroke-linejoin:round;stroke-width:0.749999}
		.st11 {stroke:#000000;stroke-linecap:round;stroke-linejoin:round;stroke-width:0.749999}
		.st12 {stroke:#000000;stroke-linecap:round;stroke-linejoin:round;stroke-width:0.75}
		.st13 {fill:none;fill-rule:evenodd;font-size:12px;overflow:visible;stroke-linecap:square;stroke-miterlimit:3}
	]]>
	</style>

	<defs id="Markers">
		<g id="lend1">
			<path d="M 1 -1 L 0 0 L 1 1 " style="stroke-linecap:round;stroke-linejoin:round;fill:none"/>
		</g>
		<marker id="mrkr1-12" class="st4" v:arrowType="1" v:arrowSize="2" orient="auto" markerUnits="strokeWidth"
				overflow="visible">
			<use xlink:href="#lend1" transform="scale(-4.3600047892311,-4.3600047892311) "/>
		</marker>
		<marker id="mrkr1-39" class="st7" v:arrowType="1" v:arrowSize="1" orient="auto" markerUnits="strokeWidth"
				overflow="visible">
			<use xlink:href="#lend1" transform="scale(-2.8000025656595,-2.8000025656595) "/>
		</marker>
	</defs>
	<g v:mID="0" v:index="1" v:groupContext="foregroundPage">
		<title>localDispl</title>
		<v:pageProperties v:drawingScale="0.0393701" v:pageScale="0.0393701" v:drawingUnits="24" v:shadowOffsetX="8.50393"
				v:shadowOffsetY="-8.50393"/>
		<v:layer v:name="Electrical" v:index="0"/>
		<g id="shape1-1" v:mID="1" v:groupContext="shape" transform="translate(39.8493,-637.794)">
			<title>Sheet.1</title>
			<path d="M0 841.89 L21.26 841.89 L0 841.89 Z" class="st1"/>
			<path d="M0 841.89 L21.26 841.89" class="st2"/>
		</g>
		<g id="shape2-4" v:mID="2" v:groupContext="shape" transform="translate(75.2822,-637.794)">
			<title>Sheet.2</title>
			<path d="M0 841.89 L77.95 841.89 L0 841.89 Z" class="st1"/>
			<path d="M0 841.89 L77.95 841.89" class="st2"/>
		</g>
		<g id="shape3-7" v:mID="3" v:groupContext="shape" transform="translate(917.171,204.094) rotate(90)">
			<title>Sheet.3</title>
			<path d="M0 841.89 L35.43 841.89" class="st3"/>
		</g>
		<g id="shape4-13" v:mID="4" v:groupContext="shape" transform="translate(71.7389,-634.252)">
			<title>Sheet.4</title>
			<ellipse cx="3.5433" cy="838.345" rx="3.5433" ry="3.5433" class="st5"/>
		</g>
		<g id="shape5-15" v:mID="5" v:groupContext="shape" transform="translate(110.715,-634.252)">
			<title>Sheet.5</title>
			<ellipse cx="3.5433" cy="838.345" rx="3.5433" ry="3.5433" class="st5"/>
		</g>
		<g id="shape6-17" v:mID="6" v:groupContext="shape" transform="translate(149.691,-634.252)">
			<title>Sheet.6</title>
			<ellipse cx="3.5433" cy="838.345" rx="3.5433" ry="3.5433" class="st5"/>
		</g>
		<g id="shape7-19" v:mID="7" v:groupContext="shape" transform="translate(931.344,189.921) rotate(90)">
			<title>Sheet.7</title>
			<path d="M0 841.89 L35.43 841.89" class="st3"/>
		</g>
		<g id="shape8-24" v:mID="8" v:groupContext="shape" transform="translate(995.124,204.094) rotate(90)">
			<title>Sheet.8</title>
			<path d="M0 841.89 L35.43 841.89" class="st3"/>
		</g>
		<g id="shape9-29" v:mID="9" v:groupContext="shape" transform="translate(980.95,189.921) rotate(90)">
			<title>Sheet.9</title>
			<path d="M0 841.89 L35.43 841.89" class="st3"/>
		</g>
		<g id="shape10-34" v:mID="10" v:groupContext="shape" transform="translate(905.607,160.082) rotate(90)">
			<title>Arc - graphical</title>
			<v:userDefs>
				<v:ud v:nameU="visVersion" v:val="VT0(15):26"/>
			</v:userDefs>
			<path d="M37.3 823.24 A18.65 18.65 0 1 1 0 823.24" class="st6"/>
		</g>
		<g id="shape11-40" v:mID="11" v:groupContext="shape" transform="translate(983.559,161.201) rotate(90)">
			<title>Arc - graphical.103</title>
			<v:userDefs>
				<v:ud v:nameU="visVersion" v:val="VT0(15):26"/>
			</v:userDefs>
			<path d="M37.3 823.24 A18.65 18.65 0 1 1 0 823.24" class="st6"/>
		</g>
		<g id="shape12-45" v:mID="12" v:groupContext="shape" transform="translate(49.9786,-681.574)">
			<title>Sheet.12</title>
			<desc>U11</desc>
			<v:userDefs/>
			<v:textBlock v:margins="rect(3.99999,3.99999,3.99999,3.99999)" v:tabSpace="42.5196"/>
			<v:textRect cx="18.2168" cy="831.889" width="36.44" height="20"/>
			<rect x="0" y="821.889" width="36.4342" height="20" class="st8"/>
			<text x="8.29" y="835.49" class="st9" v:langID="1033"><v:paragraph v:horizAlign="1"/><v:tabList/>U11</text>		</g>
		<g id="shape13-48" v:mID="13" v:groupContext="shape" transform="translate(57.0652,-582.361)">
			<title>Sheet.13</title>
			<desc>U12</desc>
			<v:userDefs/>
			<v:textBlock v:margins="rect(3.99999,3.99999,3.99999,3.99999)" v:tabSpace="42.5196"/>
			<v:textRect cx="18.2168" cy="831.889" width="36.44" height="20"/>
			<rect x="0" y="821.889" width="36.4342" height="20" class="st8"/>
			<text x="8.29" y="835.49" class="st9" v:langID="1033"><v:paragraph v:horizAlign="1"/><v:tabList/>U12</text>		</g>
		<g id="shape14-51" v:mID="14" v:groupContext="shape" transform="translate(78.3249,-599.448)">
			<title>Sheet.14</title>
			<desc>U13</desc>
			<v:userDefs/>
			<v:textBlock v:margins="rect(3.99999,3.99999,3.99999,3.99999)" v:tabSpace="42.5196"/>
			<v:textRect cx="18.2168" cy="831.889" width="36.44" height="20"/>
			<rect x="0" y="821.889" width="36.4342" height="20" class="st8"/>
			<text x="8.29" y="835.49" class="st9" v:langID="1033"><v:paragraph v:horizAlign="1"/><v:tabList/>U13</text>		</g>
		<g id="shape15-54" v:mID="15" v:groupContext="shape" transform="translate(171.452,-582.361) scale(-1,1)">
			<title>Sheet.15</title>
			<desc>U16</desc>
			<v:userDefs/>
			<v:textBlock v:margins="rect(3.99999,3.99999,3.99999,3.99999)" v:tabSpace="42.5196"/>
			<v:textRect cx="18.2168" cy="831.889" width="36.44" height="20"/>
			<rect x="0" y="821.889" width="36.4342" height="20" class="st8"/>
			<text x="-28.15" y="835.49" transform="scale(-1,1)" class="st9" v:langID="1033"><v:paragraph v:horizAlign="1"/><v:tabList/>U16</text>		</g>
		<g id="shape16-57" v:mID="16" v:groupContext="shape" transform="translate(155.569,-599.448) scale(-1,1)">
			<title>Sheet.16</title>
			<desc>U14</desc>
			<v:userDefs/>
			<v:textBlock v:margins="rect(3.99999,3.99999,3.99999,3.99999)" v:tabSpace="42.5196"/>
			<v:textRect cx="18.2168" cy="831.889" width="36.44" height="20"/>
			<rect x="0" y="821.889" width="36.4342" height="20" class="st8"/>
			<text x="-28.15" y="835.49" transform="scale(-1,1)" class="st9" v:langID="1033"><v:paragraph v:horizAlign="1"/><v:tabList/>U14</text>		</g>
		<g id="shape17-60" v:mID="17" v:groupContext="shape" transform="translate(135.018,-681.653)">
			<title>Sheet.17</title>
			<desc>U15</desc>
			<v:userDefs/>
			<v:textBlock v:margins="rect(3.99999,3.99999,3.99999,3.99999)" v:tabSpace="42.5196"/>
			<v:textRect cx="18.2168" cy="831.889" width="36.44" height="20"/>
			<rect x="0" y="821.889" width="36.4342" height="20" class="st8"/>
			<text x="8.29" y="835.49" class="st9" v:langID="1033"><v:paragraph v:horizAlign="1"/><v:tabList/>U15</text>		</g>
		<g id="shape18-63" v:mID="18" v:groupContext="shape" transform="translate(57.8402,-616.534)">
			<title>Sheet.18</title>
			<desc>1</desc>
			<v:userDefs/>
			<v:textBlock v:margins="rect(3.99999,3.99999,3.99999,3.99999)" v:tabSpace="42.5196"/>
			<v:textRect cx="6.69878" cy="831.889" width="13.4" height="20"/>
			<rect x="0" y="821.889" width="13.3983" height="20" class="st8"/>
			<text x="4" y="835.49" class="st9" v:langID="1033"><v:paragraph v:horizAlign="1"/><v:tabList/>1</text>		</g>
		<g id="shape19-66" v:mID="19" v:groupContext="shape" transform="translate(107.559,-616.849)">
			<title>Sheet.19</title>
			<desc>2</desc>
			<v:userDefs/>
			<v:textBlock v:margins="rect(3.99999,3.99999,3.99999,3.99999)" v:tabSpace="42.5196"/>
			<v:textRect cx="6.69878" cy="831.889" width="13.4" height="20"/>
			<rect x="0" y="821.889" width="13.3983" height="20" class="st8"/>
			<text x="4" y="835.49" class="st9" v:langID="1033"><v:paragraph v:horizAlign="1"/><v:tabList/>2</text>		</g>
		<g id="shape20-69" v:mID="20" v:groupContext="shape" transform="translate(154.01,-616.534)">
			<title>Sheet.20</title>
			<desc>3</desc>
			<v:userDefs/>
			<v:textBlock v:margins="rect(3.99999,3.99999,3.99999,3.99999)" v:tabSpace="42.5196"/>
			<v:textRect cx="6.69878" cy="831.889" width="13.4" height="20"/>
			<rect x="0" y="821.889" width="13.3983" height="20" class="st8"/>
			<text x="4" y="835.49" class="st9" v:langID="1033"><v:paragraph v:horizAlign="1"/><v:tabList/>3</text>		</g>
		<g id="shape21-72" v:mID="21" v:groupContext="shape" transform="translate(164.677,-637.873)">
			<title>Sheet.21</title>
			<path d="M0 841.89 L21.26 841.89 L0 841.89 Z" class="st1"/>
			<path d="M0 841.89 L21.26 841.89" class="st2"/>
		</g>
		<g id="shape22-75" v:mID="22" v:groupContext="shape" transform="translate(200.11,-637.873)">
			<title>Sheet.22</title>
			<path d="M0 841.89 L77.95 841.89 L0 841.89 Z" class="st1"/>
			<path d="M0 841.89 L77.95 841.89" class="st2"/>
		</g>
		<g id="shape23-78" v:mID="23" v:groupContext="shape" transform="translate(1042,204.016) rotate(90)">
			<title>Sheet.23</title>
			<path d="M0 841.89 L35.43 841.89" class="st3"/>
		</g>
		<g id="shape24-83" v:mID="24" v:groupContext="shape" transform="translate(196.567,-634.331)">
			<title>Sheet.24</title>
			<ellipse cx="3.5433" cy="838.345" rx="3.5433" ry="3.5433" class="st5"/>
		</g>
		<g id="shape25-85" v:mID="25" v:groupContext="shape" transform="translate(235.544,-634.331)">
			<title>Sheet.25</title>
			<ellipse cx="3.5433" cy="838.345" rx="3.5433" ry="3.5433" class="st5"/>
		</g>
		<g id="shape26-87" v:mID="26" v:groupContext="shape" transform="translate(274.52,-634.331)">
			<title>Sheet.26</title>
			<ellipse cx="3.5433" cy="838.345" rx="3.5433" ry="3.5433" class="st5"/>
		</g>
		<g id="shape27-89" v:mID="27" v:groupContext="shape" transform="translate(1056.17,189.842) rotate(90)">
			<title>Sheet.27</title>
			<path d="M0 841.89 L35.43 841.89" class="st3"/>
		</g>
		<g id="shape28-94" v:mID="28" v:groupContext="shape" transform="translate(1119.95,204.016) rotate(90)">
			<title>Sheet.28</title>
			<path d="M0 841.89 L35.43 841.89" class="st3"/>
		</g>
		<g id="shape29-99" v:mID="29" v:groupContext="shape" transform="translate(1105.78,189.842) rotate(90)">
			<title>Sheet.29</title>
			<path d="M0 841.89 L35.43 841.89" class="st3"/>
		</g>
		<g id="shape30-104" v:mID="30" v:groupContext="shape" transform="translate(1030.44,160.003) rotate(90)">
			<title>Arc - graphical.122</title>
			<v:userDefs>
				<v:ud v:nameU="visVersion" v:val="VT0(15):26"/>
			</v:userDefs>
			<path d="M37.3 823.24 A18.65 18.65 0 1 1 0 823.24" class="st6"/>
		</g>
		<g id="shape31-109" v:mID="31" v:groupContext="shape" transform="translate(1108.39,161.122) rotate(90)">
			<title>Arc - graphical.123</title>
			<v:userDefs>
				<v:ud v:nameU="visVersion" v:val="VT0(15):26"/>
			</v:userDefs>
			<path d="M37.3 823.24 A18.65 18.65 0 1 1 0 823.24" class="st6"/>
		</g>
		<g id="shape32-114" v:mID="32" v:groupContext="shape" transform="translate(174.807,-681.653)">
			<title>Sheet.32</title>
			<desc>U21</desc>
			<v:userDefs/>
			<v:textBlock v:margins="rect(3.99999,3.99999,3.99999,3.99999)" v:tabSpace="42.5196"/>
			<v:textRect cx="18.2168" cy="831.889" width="36.44" height="20"/>
			<rect x="0" y="821.889" width="36.4342" height="20" class="st8"/>
			<text x="8.29" y="835.49" class="st9" v:langID="1033"><v:paragraph v:horizAlign="1"/><v:tabList/>U21</text>		</g>
		<g id="shape33-117" v:mID="33" v:groupContext="shape" transform="translate(181.581,-582.361)">
			<title>Sheet.33</title>
			<desc>U22</desc>
			<v:userDefs/>
			<v:textBlock v:margins="rect(3.99999,3.99999,3.99999,3.99999)" v:tabSpace="42.5196"/>
			<v:textRect cx="18.2168" cy="831.889" width="36.44" height="20"/>
			<rect x="0" y="821.889" width="36.4342" height="20" class="st8"/>
			<text x="8.29" y="835.49" class="st9" v:langID="1033"><v:paragraph v:horizAlign="1"/><v:tabList/>U22</text>		</g>
		<g id="shape34-120" v:mID="34" v:groupContext="shape" transform="translate(203.153,-599.527)">
			<title>Sheet.34</title>
			<desc>U23</desc>
			<v:userDefs/>
			<v:textBlock v:margins="rect(3.99999,3.99999,3.99999,3.99999)" v:tabSpace="42.5196"/>
			<v:textRect cx="18.2168" cy="831.889" width="36.44" height="20"/>
			<rect x="0" y="821.889" width="36.4342" height="20" class="st8"/>
			<text x="8.29" y="835.49" class="st9" v:langID="1033"><v:paragraph v:horizAlign="1"/><v:tabList/>U23</text>		</g>
		<g id="shape35-123" v:mID="35" v:groupContext="shape" transform="translate(295.968,-582.361) scale(-1,1)">
			<title>Sheet.35</title>
			<desc>U26</desc>
			<v:userDefs/>
			<v:textBlock v:margins="rect(3.99999,3.99999,3.99999,3.99999)" v:tabSpace="42.5196"/>
			<v:textRect cx="18.2168" cy="831.889" width="36.44" height="20"/>
			<rect x="0" y="821.889" width="36.4342" height="20" class="st8"/>
			<text x="-28.15" y="835.49" transform="scale(-1,1)" class="st9" v:langID="1033"><v:paragraph v:horizAlign="1"/><v:tabList/>U26</text>		</g>
		<g id="shape36-126" v:mID="36" v:groupContext="shape" transform="translate(280.397,-599.527) scale(-1,1)">
			<title>Sheet.36</title>
			<desc>U24</desc>
			<v:userDefs/>
			<v:textBlock v:margins="rect(3.99999,3.99999,3.99999,3.99999)" v:tabSpace="42.5196"/>
			<v:textRect cx="18.2168" cy="831.889" width="36.44" height="20"/>
			<rect x="0" y="821.889" width="36.4342" height="20" class="st8"/>
			<text x="-28.15" y="835.49" transform="scale(-1,1)" class="st9" v:langID="1033"><v:paragraph v:horizAlign="1"/><v:tabList/>U24</text>		</g>
		<g id="shape37-129" v:mID="37" v:groupContext="shape" transform="translate(259.846,-681.731)">
			<title>Sheet.37</title>
			<desc>U25</desc>
			<v:userDefs/>
			<v:textBlock v:margins="rect(3.99999,3.99999,3.99999,3.99999)" v:tabSpace="42.5196"/>
			<v:textRect cx="18.2168" cy="831.889" width="36.44" height="20"/>
			<rect x="0" y="821.889" width="36.4342" height="20" class="st8"/>
			<text x="8.29" y="835.49" class="st9" v:langID="1033"><v:paragraph v:horizAlign="1"/><v:tabList/>U25</text>		</g>
		<g id="shape38-132" v:mID="38" v:groupContext="shape" transform="translate(182.668,-616.613)">
			<title>Sheet.38</title>
			<desc>4</desc>
			<v:userDefs/>
			<v:textBlock v:margins="rect(3.99999,3.99999,3.99999,3.99999)" v:tabSpace="42.5196"/>
			<v:textRect cx="6.69878" cy="831.889" width="13.4" height="20"/>
			<rect x="0" y="821.889" width="13.3983" height="20" class="st8"/>
			<text x="4" y="835.49" class="st9" v:langID="1033"><v:paragraph v:horizAlign="1"/><v:tabList/>4</text>		</g>
		<g id="shape39-135" v:mID="39" v:groupContext="shape" transform="translate(232.388,-616.928)">
			<title>Sheet.39</title>
			<desc>5</desc>
			<v:userDefs/>
			<v:textBlock v:margins="rect(3.99999,3.99999,3.99999,3.99999)" v:tabSpace="42.5196"/>
			<v:textRect cx="6.69878" cy="831.889" width="13.4" height="20"/>
			<rect x="0" y="821.889" width="13.3983" height="20" class="st8"/>
			<text x="4" y="835.49" class="st9" v:langID="1033"><v:paragraph v:horizAlign="1"/><v:tabList/>5</text>		</g>
		<g id="shape40-138" v:mID="40" v:groupContext="shape" transform="translate(278.838,-616.613)">
			<title>Sheet.40</title>
			<desc>6</desc>
			<v:userDefs/>
			<v:textBlock v:margins="rect(3.99999,3.99999,3.99999,3.99999)" v:tabSpace="42.5196"/>
			<v:textRect cx="6.69878" cy="831.889" width="13.4" height="20"/>
			<rect x="0" y="821.889" width="13.3983" height="20" class="st8"/>
			<text x="4" y="835.49" class="st9" v:langID="1033"><v:paragraph v:horizAlign="1"/><v:tabList/>6</text>		</g>
		<g id="shape41-141" v:mID="41" v:groupContext="shape" transform="translate(290.491,-637.637)">
			<title>Sheet.41</title>
			<path d="M0 841.89 L21.26 841.89 L0 841.89 Z" class="st1"/>
			<path d="M0 841.89 L21.26 841.89" class="st2"/>
		</g>
		<g id="shape42-144" v:mID="42" v:groupContext="shape" transform="translate(325.924,-637.637)">
			<title>Sheet.42</title>
			<path d="M0 841.89 L77.95 841.89 L0 841.89 Z" class="st1"/>
			<path d="M0 841.89 L77.95 841.89" class="st2"/>
		</g>
		<g id="shape43-147" v:mID="43" v:groupContext="shape" transform="translate(1167.81,204.252) rotate(90)">
			<title>Sheet.43</title>
			<path d="M0 841.89 L35.43 841.89" class="st3"/>
		</g>
		<g id="shape44-152" v:mID="44" v:groupContext="shape" transform="translate(322.381,-634.094)">
			<title>Sheet.44</title>
			<ellipse cx="3.5433" cy="838.345" rx="3.5433" ry="3.5433" class="st5"/>
		</g>
		<g id="shape45-154" v:mID="45" v:groupContext="shape" transform="translate(361.357,-634.094)">
			<title>Sheet.45</title>
			<ellipse cx="3.5433" cy="838.345" rx="3.5433" ry="3.5433" class="st5"/>
		</g>
		<g id="shape46-156" v:mID="46" v:groupContext="shape" transform="translate(400.334,-634.094)">
			<title>Sheet.46</title>
			<ellipse cx="3.5433" cy="838.345" rx="3.5433" ry="3.5433" class="st5"/>
		</g>
		<g id="shape47-158" v:mID="47" v:groupContext="shape" transform="translate(1181.99,190.079) rotate(90)">
			<title>Sheet.47</title>
			<path d="M0 841.89 L35.43 841.89" class="st3"/>
		</g>
		<g id="shape48-163" v:mID="48" v:groupContext="shape" transform="translate(1245.77,204.252) rotate(90)">
			<title>Sheet.48</title>
			<path d="M0 841.89 L35.43 841.89" class="st3"/>
		</g>
		<g id="shape49-168" v:mID="49" v:groupContext="shape" transform="translate(1231.59,190.079) rotate(90)">
			<title>Sheet.49</title>
			<path d="M0 841.89 L35.43 841.89" class="st3"/>
		</g>
		<g id="shape50-173" v:mID="50" v:groupContext="shape" transform="translate(1156.25,160.239) rotate(90)">
			<title>Arc - graphical.142</title>
			<v:userDefs>
				<v:ud v:nameU="visVersion" v:val="VT0(15):26"/>
			</v:userDefs>
			<path d="M37.3 823.24 A18.65 18.65 0 1 1 0 823.24" class="st6"/>
		</g>
		<g id="shape51-178" v:mID="51" v:groupContext="shape" transform="translate(1234.2,161.358) rotate(90)">
			<title>Arc - graphical.143</title>
			<v:userDefs>
				<v:ud v:nameU="visVersion" v:val="VT0(15):26"/>
			</v:userDefs>
			<path d="M37.3 823.24 A18.65 18.65 0 1 1 0 823.24" class="st6"/>
		</g>
		<g id="shape52-183" v:mID="52" v:groupContext="shape" transform="translate(300.621,-681.416)">
			<title>Sheet.52</title>
			<desc>U31</desc>
			<v:userDefs/>
			<v:textBlock v:margins="rect(3.99999,3.99999,3.99999,3.99999)" v:tabSpace="42.5196"/>
			<v:textRect cx="18.2168" cy="831.889" width="36.44" height="20"/>
			<rect x="0" y="821.889" width="36.4342" height="20" class="st8"/>
			<text x="8.29" y="835.49" class="st9" v:langID="1033"><v:paragraph v:horizAlign="1"/><v:tabList/>U31</text>		</g>
		<g id="shape53-186" v:mID="53" v:groupContext="shape" transform="translate(307.707,-582.204)">
			<title>Sheet.53</title>
			<desc>U32</desc>
			<v:userDefs/>
			<v:textBlock v:margins="rect(3.99999,3.99999,3.99999,3.99999)" v:tabSpace="42.5196"/>
			<v:textRect cx="18.2168" cy="831.889" width="36.44" height="20"/>
			<rect x="0" y="821.889" width="36.4342" height="20" class="st8"/>
			<text x="8.29" y="835.49" class="st9" v:langID="1033"><v:paragraph v:horizAlign="1"/><v:tabList/>U32</text>		</g>
		<g id="shape54-189" v:mID="54" v:groupContext="shape" transform="translate(328.967,-599.29)">
			<title>Sheet.54</title>
			<desc>U33</desc>
			<v:userDefs/>
			<v:textBlock v:margins="rect(3.99999,3.99999,3.99999,3.99999)" v:tabSpace="42.5196"/>
			<v:textRect cx="18.2168" cy="831.889" width="36.44" height="20"/>
			<rect x="0" y="821.889" width="36.4342" height="20" class="st8"/>
			<text x="8.29" y="835.49" class="st9" v:langID="1033"><v:paragraph v:horizAlign="1"/><v:tabList/>U33</text>		</g>
		<g id="shape55-192" v:mID="55" v:groupContext="shape" transform="translate(422.094,-582.204) scale(-1,1)">
			<title>Sheet.55</title>
			<desc>U36</desc>
			<v:userDefs/>
			<v:textBlock v:margins="rect(3.99999,3.99999,3.99999,3.99999)" v:tabSpace="42.5196"/>
			<v:textRect cx="18.2168" cy="831.889" width="36.44" height="20"/>
			<rect x="0" y="821.889" width="36.4342" height="20" class="st8"/>
			<text x="-28.15" y="835.49" transform="scale(-1,1)" class="st9" v:langID="1033"><v:paragraph v:horizAlign="1"/><v:tabList/>U36</text>		</g>
		<g id="shape56-195" v:mID="56" v:groupContext="shape" transform="translate(406.211,-599.29) scale(-1,1)">
			<title>Sheet.56</title>
			<desc>U34</desc>
			<v:userDefs/>
			<v:textBlock v:margins="rect(3.99999,3.99999,3.99999,3.99999)" v:tabSpace="42.5196"/>
			<v:textRect cx="18.2168" cy="831.889" width="36.44" height="20"/>
			<rect x="0" y="821.889" width="36.4342" height="20" class="st8"/>
			<text x="-28.15" y="835.49" transform="scale(-1,1)" class="st9" v:langID="1033"><v:paragraph v:horizAlign="1"/><v:tabList/>U34</text>		</g>
		<g id="shape57-198" v:mID="57" v:groupContext="shape" transform="translate(385.66,-681.495)">
			<title>Sheet.57</title>
			<desc>U35</desc>
			<v:userDefs/>
			<v:textBlock v:margins="rect(3.99999,3.99999,3.99999,3.99999)" v:tabSpace="42.5196"/>
			<v:textRect cx="18.2168" cy="831.889" width="36.44" height="20"/>
			<rect x="0" y="821.889" width="36.4342" height="20" class="st8"/>
			<text x="8.29" y="835.49" class="st9" v:langID="1033"><v:paragraph v:horizAlign="1"/><v:tabList/>U35</text>		</g>
		<g id="shape58-201" v:mID="58" v:groupContext="shape" transform="translate(308.482,-616.377)">
			<title>Sheet.58</title>
			<desc>7</desc>
			<v:userDefs/>
			<v:textBlock v:margins="rect(3.99999,3.99999,3.99999,3.99999)" v:tabSpace="42.5196"/>
			<v:textRect cx="6.69878" cy="831.889" width="13.4" height="20"/>
			<rect x="0" y="821.889" width="13.3983" height="20" class="st8"/>
			<text x="4" y="835.49" class="st9" v:langID="1033"><v:paragraph v:horizAlign="1"/><v:tabList/>7</text>		</g>
		<g id="shape59-204" v:mID="59" v:groupContext="shape" transform="translate(358.202,-616.692)">
			<title>Sheet.59</title>
			<desc>8</desc>
			<v:userDefs/>
			<v:textBlock v:margins="rect(3.99999,3.99999,3.99999,3.99999)" v:tabSpace="42.5196"/>
			<v:textRect cx="6.69878" cy="831.889" width="13.4" height="20"/>
			<rect x="0" y="821.889" width="13.3983" height="20" class="st8"/>
			<text x="4" y="835.49" class="st9" v:langID="1033"><v:paragraph v:horizAlign="1"/><v:tabList/>8</text>		</g>
		<g id="shape60-207" v:mID="60" v:groupContext="shape" transform="translate(404.652,-616.377)">
			<title>Sheet.60</title>
			<desc>9</desc>
			<v:userDefs/>
			<v:textBlock v:margins="rect(3.99999,3.99999,3.99999,3.99999)" v:tabSpace="42.5196"/>
			<v:textRect cx="6.69878" cy="831.889" width="13.4" height="20"/>
			<rect x="0" y="821.889" width="13.3983" height="20" class="st8"/>
			<text x="4" y="835.49" class="st9" v:langID="1033"><v:paragraph v:horizAlign="1"/><v:tabList/>9</text>		</g>
		<g id="shape61-210" v:mID="61" v:groupContext="shape" transform="translate(416.901,-637.716)">
			<title>Sheet.61</title>
			<path d="M0 841.89 L21.26 841.89 L0 841.89 Z" class="st1"/>
			<path d="M0 841.89 L21.26 841.89" class="st2"/>
		</g>
		<g id="shape62-213" v:mID="62" v:groupContext="shape" transform="translate(452.334,-637.716)">
			<title>Sheet.62</title>
			<path d="M0 841.89 L77.95 841.89 L0 841.89 Z" class="st1"/>
			<path d="M0 841.89 L77.95 841.89" class="st2"/>
		</g>
		<g id="shape63-216" v:mID="63" v:groupContext="shape" transform="translate(1294.22,204.173) rotate(90)">
			<title>Sheet.63</title>
			<path d="M0 841.89 L35.43 841.89" class="st3"/>
		</g>
		<g id="shape64-221" v:mID="64" v:groupContext="shape" transform="translate(448.791,-634.173)">
			<title>Sheet.64</title>
			<ellipse cx="3.5433" cy="838.345" rx="3.5433" ry="3.5433" class="st5"/>
		</g>
		<g id="shape65-223" v:mID="65" v:groupContext="shape" transform="translate(487.767,-634.173)">
			<title>Sheet.65</title>
			<ellipse cx="3.5433" cy="838.345" rx="3.5433" ry="3.5433" class="st5"/>
		</g>
		<g id="shape66-225" v:mID="66" v:groupContext="shape" transform="translate(526.744,-634.173)">
			<title>Sheet.66</title>
			<ellipse cx="3.5433" cy="838.345" rx="3.5433" ry="3.5433" class="st5"/>
		</g>
		<g id="shape67-227" v:mID="67" v:groupContext="shape" transform="translate(1308.4,190) rotate(90)">
			<title>Sheet.67</title>
			<path d="M0 841.89 L35.43 841.89" class="st3"/>
		</g>
		<g id="shape68-232" v:mID="68" v:groupContext="shape" transform="translate(1372.18,204.173) rotate(90)">
			<title>Sheet.68</title>
			<path d="M0 841.89 L35.43 841.89" class="st3"/>
		</g>
		<g id="shape69-237" v:mID="69" v:groupContext="shape" transform="translate(1358,190) rotate(90)">
			<title>Sheet.69</title>
			<path d="M0 841.89 L35.43 841.89" class="st3"/>
		</g>
		<g id="shape70-242" v:mID="70" v:groupContext="shape" transform="translate(1282.66,160.161) rotate(90)">
			<title>Arc - graphical.162</title>
			<v:userDefs>
				<v:ud v:nameU="visVersion" v:val="VT0(15):26"/>
			</v:userDefs>
			<path d="M37.3 823.24 A18.65 18.65 0 1 1 0 823.24" class="st6"/>
		</g>
		<g id="shape71-247" v:mID="71" v:groupContext="shape" transform="translate(1360.61,161.279) rotate(90)">
			<title>Arc - graphical.163</title>
			<v:userDefs>
				<v:ud v:nameU="visVersion" v:val="VT0(15):26"/>
			</v:userDefs>
			<path d="M37.3 823.24 A18.65 18.65 0 1 1 0 823.24" class="st6"/>
		</g>
		<g id="shape72-252" v:mID="72" v:groupContext="shape" transform="translate(427.03,-681.495)">
			<title>Sheet.72</title>
			<desc>U41</desc>
			<v:userDefs/>
			<v:textBlock v:margins="rect(3.99999,3.99999,3.99999,3.99999)" v:tabSpace="42.5196"/>
			<v:textRect cx="18.2168" cy="831.889" width="36.44" height="20"/>
			<rect x="0" y="821.889" width="36.4342" height="20" class="st8"/>
			<text x="8.29" y="835.49" class="st9" v:langID="1033"><v:paragraph v:horizAlign="1"/><v:tabList/>U41</text>		</g>
		<g id="shape73-255" v:mID="73" v:groupContext="shape" transform="translate(433.805,-582.204)">
			<title>Sheet.73</title>
			<desc>U42</desc>
			<v:userDefs/>
			<v:textBlock v:margins="rect(3.99999,3.99999,3.99999,3.99999)" v:tabSpace="42.5196"/>
			<v:textRect cx="18.2168" cy="831.889" width="36.44" height="20"/>
			<rect x="0" y="821.889" width="36.4342" height="20" class="st8"/>
			<text x="8.29" y="835.49" class="st9" v:langID="1033"><v:paragraph v:horizAlign="1"/><v:tabList/>U42</text>		</g>
		<g id="shape74-258" v:mID="74" v:groupContext="shape" transform="translate(455.377,-599.369)">
			<title>Sheet.74</title>
			<desc>U43</desc>
			<v:userDefs/>
			<v:textBlock v:margins="rect(3.99999,3.99999,3.99999,3.99999)" v:tabSpace="42.5196"/>
			<v:textRect cx="18.2168" cy="831.889" width="36.44" height="20"/>
			<rect x="0" y="821.889" width="36.4342" height="20" class="st8"/>
			<text x="8.29" y="835.49" class="st9" v:langID="1033"><v:paragraph v:horizAlign="1"/><v:tabList/>U43</text>		</g>
		<g id="shape75-261" v:mID="75" v:groupContext="shape" transform="translate(548.192,-582.204) scale(-1,1)">
			<title>Sheet.75</title>
			<desc>U46</desc>
			<v:userDefs/>
			<v:textBlock v:margins="rect(3.99999,3.99999,3.99999,3.99999)" v:tabSpace="42.5196"/>
			<v:textRect cx="18.2168" cy="831.889" width="36.44" height="20"/>
			<rect x="0" y="821.889" width="36.4342" height="20" class="st8"/>
			<text x="-28.15" y="835.49" transform="scale(-1,1)" class="st9" v:langID="1033"><v:paragraph v:horizAlign="1"/><v:tabList/>U46</text>		</g>
		<g id="shape76-264" v:mID="76" v:groupContext="shape" transform="translate(532.621,-599.369) scale(-1,1)">
			<title>Sheet.76</title>
			<desc>U44</desc>
			<v:userDefs/>
			<v:textBlock v:margins="rect(3.99999,3.99999,3.99999,3.99999)" v:tabSpace="42.5196"/>
			<v:textRect cx="18.2168" cy="831.889" width="36.44" height="20"/>
			<rect x="0" y="821.889" width="36.4342" height="20" class="st8"/>
			<text x="-28.15" y="835.49" transform="scale(-1,1)" class="st9" v:langID="1033"><v:paragraph v:horizAlign="1"/><v:tabList/>U44</text>		</g>
		<g id="shape77-267" v:mID="77" v:groupContext="shape" transform="translate(512.07,-681.574)">
			<title>Sheet.77</title>
			<desc>U45</desc>
			<v:userDefs/>
			<v:textBlock v:margins="rect(3.99999,3.99999,3.99999,3.99999)" v:tabSpace="42.5196"/>
			<v:textRect cx="18.2168" cy="831.889" width="36.44" height="20"/>
			<rect x="0" y="821.889" width="36.4342" height="20" class="st8"/>
			<text x="8.29" y="835.49" class="st9" v:langID="1033"><v:paragraph v:horizAlign="1"/><v:tabList/>U45</text>		</g>
		<g id="shape78-270" v:mID="78" v:groupContext="shape" transform="translate(428.013,-616.456)">
			<title>Sheet.78</title>
			<desc>10</desc>
			<v:userDefs/>
			<v:textBlock v:margins="rect(3.99999,3.99999,3.99999,3.99999)" v:tabSpace="42.5196"/>
			<v:textRect cx="10.138" cy="831.889" width="20.28" height="20"/>
			<rect x="0" y="821.889" width="20.2768" height="20" class="st8"/>
			<text x="4.06" y="835.49" class="st9" v:langID="1033"><v:paragraph v:horizAlign="1"/><v:tabList/>10</text>		</g>
		<g id="shape79-273" v:mID="79" v:groupContext="shape" transform="translate(484.611,-616.771)">
			<title>Sheet.79</title>
			<desc>11</desc>
			<v:userDefs/>
			<v:textBlock v:margins="rect(3.99999,3.99999,3.99999,3.99999)" v:tabSpace="42.5196"/>
			<v:textRect cx="10.138" cy="831.889" width="20.28" height="20"/>
			<rect x="0" y="821.889" width="20.2768" height="20" class="st8"/>
			<text x="4.06" y="835.49" class="st9" v:langID="1033"><v:paragraph v:horizAlign="1"/><v:tabList/>11</text>		</g>
		<g id="shape80-276" v:mID="80" v:groupContext="shape" transform="translate(531.062,-616.456)">
			<title>Sheet.80</title>
			<desc>12</desc>
			<v:userDefs/>
			<v:textBlock v:margins="rect(3.99999,3.99999,3.99999,3.99999)" v:tabSpace="42.5196"/>
			<v:textRect cx="10.138" cy="831.889" width="20.28" height="20"/>
			<rect x="0" y="821.889" width="20.2768" height="20" class="st8"/>
			<text x="4.06" y="835.49" class="st9" v:langID="1033"><v:paragraph v:horizAlign="1"/><v:tabList/>12</text>		</g>
		<g id="shape81-279" v:mID="81" v:groupContext="shape" transform="translate(545.669,-637.794)">
			<title>Sheet.81</title>
			<path d="M0 841.89 L21.26 841.89 L0 841.89 Z" class="st1"/>
			<path d="M0 841.89 L21.26 841.89" class="st2"/>
		</g>
		<g id="shape89-282" v:mID="89" v:groupContext="shape" transform="translate(891.867,145.234) rotate(90.0454)">
			<title>Sheet.89</title>
			<path d="M0 841.89 L111.74 841.89 L0 841.89 Z" class="st1"/>
			<path d="M0 841.89 L111.74 841.89" class="st10"/>
		</g>
		<g id="group95-285" transform="translate(557.717,-620.786)" v:mID="95" v:groupContext="group">
			<title>Sheet.95</title>
			<g id="shape83-286" v:mID="83" v:groupContext="shape" transform="translate(1.41808,-5.10256) rotate(6.73593E-05)">
				<title>Sheet.83</title>
				<path d="M0 841.89 L17.01 841.89 L0 841.89 Z" class="st1"/>
				<path d="M0 841.89 L17.01 841.89" class="st11"/>
			</g>
			<g id="shape86-289" v:mID="86" v:groupContext="shape" transform="translate(580.201,1462.56) rotate(138.013)">
				<title>Sheet.86</title>
				<path d="M0 841.89 L7.63 841.89 L0 841.89 Z" class="st1"/>
				<path d="M0 841.89 L7.63 841.89" class="st11"/>
			</g>
			<g id="shape87-292" v:mID="87" v:groupContext="shape" transform="translate(574.532,1462.56) rotate(138.013)">
				<title>Sheet.87</title>
				<path d="M0 841.89 L7.63 841.89 L0 841.89 Z" class="st1"/>
				<path d="M0 841.89 L7.63 841.89" class="st11"/>
			</g>
			<g id="shape88-295" v:mID="88" v:groupContext="shape" transform="translate(568.863,1462.56) rotate(138.013)">
				<title>Sheet.88</title>
				<path d="M0 841.89 L7.63 841.89 L0 841.89 Z" class="st1"/>
				<path d="M0 841.89 L7.63 841.89" class="st11"/>
			</g>
			<g id="shape92-298" v:mID="92" v:groupContext="shape" transform="translate(-823.462,836.786) rotate(-90)">
				<title>Sheet.92</title>
				<path d="M0 841.89 L11.91 841.89" class="st12"/>
			</g>
			<g id="shape93-301" v:mID="93" v:groupContext="shape" transform="translate(18.4271,1666.77) rotate(180)">
				<title>Sheet.93</title>
				<path d="M0 841.89 L17.15 841.89" class="st12"/>
			</g>
			<g id="shape94-304" v:mID="94" v:groupContext="shape" transform="translate(-840.613,836.786) rotate(-90)">
				<title>Sheet.94</title>
				<path d="M0 841.89 L11.91 841.89" class="st12"/>
			</g>
		</g>
	</g>
</svg>
